<?xml version="1.0" encoding="utf-8"?>
<!-- Generator: Adobe Illustrator 24.0.2, SVG Export Plug-In . SVG Version: 6.00 Build 0)  -->
<svg version="1.1" id="Layer_1" xmlns="http://www.w3.org/2000/svg" xmlns:xlink="http://www.w3.org/1999/xlink" x="0px" y="0px"
	 width="1666px" height="1162px" viewBox="0 0 1666 1162" style="enable-background:new 0 0 1666 1162;" xml:space="preserve">
<g>
	<path style="fill:#909090;" d="M955.4,97.7c0,1.8,0.4,2.7,2.6,3.3c10.2,3.2,20.2,7.2,30.5,10.2c9.6,2.8,18.9,6.6,28.6,9.4
		c7.9,2.3,15.7,4.9,23.4,7.8c8.6,3.3,17.4,5.9,26.1,8.8c6.5,2.2,13.2,4.1,19.6,6.3c10.6,3.6,21.3,7.3,32,10.7
		c7.2,2.3,14.4,4.7,21.5,7.3c7.6,2.7,15.4,5.1,23.1,7.7c7.4,2.5,14.8,5,22.3,7.5c7.2,2.3,14.5,4.6,21.6,7.1
		c12.2,4.3,24.6,8,36.9,11.9c6.7,2.1,13.4,4.5,20.1,6.9c8.1,2.9,16.4,5.4,24.5,8c10.6,3.4,21,7.2,31.6,10.7c7.3,2.5,14.8,4.5,22,7.2
		c8.1,3,16.3,5.4,24.5,8c10.4,3.4,20.8,7.1,31.2,10.6c8.4,2.8,16.9,5.3,25.3,8.3c11.1,3.9,22.2,7.6,33.5,11.1
		c10.4,3.2,20.5,7.2,30.8,10.5c4.6,1.5,9.1,3.2,13.8,4.3c1.7,0.4,2.6,1.5,3,3c0.1,0.4-0.1,1.3-0.4,1.4c-1.4,0.5-2.5-0.2-3.8-0.6
		c-4.9-1.4-9.5-3.5-14.4-5c-10.1-3.1-20-7-30.1-10.1c-6.6-2-13.1-4.2-19.7-6.2c-10.7-3.3-21.3-7.3-32-10.8
		c-8.2-2.7-16.4-5.2-24.5-8.1c-11.2-3.9-22.5-7.7-33.8-11.2c-6.7-2.1-13.4-4.5-20.1-6.9c-8.1-2.9-16.4-5.2-24.5-8.1
		c-11-3.8-22-7.5-33.1-11c-10.6-3.4-21-7.2-31.6-10.7c-8.4-2.8-17-5.1-25.4-8c-8.3-2.9-16.6-5.9-24.9-8.7c-4.6-1.5-9.2-2.8-13.8-4.4
		c-11.5-4-23-7.8-34.6-11.4c-9-2.8-17.7-6.2-26.7-8.9c-7.9-2.3-15.6-5.1-23.4-7.7c-7.2-2.4-14.3-4.9-21.5-7.2
		c-7.8-2.6-15.7-5.1-23.4-7.7c-7.2-2.5-14.4-4.9-21.5-7.2c-7.7-2.6-15.4-5-23.1-7.7c-11.2-3.9-22.4-8-33.9-11.1
		c-0.7-0.2-1.1-1-1.8-1.3c-0.7-0.3-1.7-0.4-2.2,0.3c-0.4,0.6-0.1,1.2,0.6,1.9c4.1,4.2,7.1,9.1,10.6,13.8c2.3,3.2,5.3,5.9,7.6,9.2
		c2.8,4.2,6.3,7.9,9.5,11.8c4.4,5.6,8.8,11.4,13.2,17.1c4.7,6.1,9.1,12.4,14.1,18.2c4.8,5.5,8.3,12,13.6,17.1
		c3,2.9,5.2,6.7,7.6,10.1c4.1,5.7,9.1,10.8,12.9,16.8c3.4,5.3,7.6,10.1,11.4,15.1c3.5,4.6,7,9.2,10.8,13.7c3.8,4.5,7.3,9.2,10.8,14
		c2.2,3,5.2,5.6,7,9c0.5,1,2,2.4,0.4,3.4c-1.3,0.7-2.9-0.4-3.7-1.5c-5.5-7.6-11.3-15-17.3-22.3c-6.4-7.8-11.6-16.5-18.1-24.2
		c-4.5-5.3-8.9-10.6-13-16.2c-6.9-9.4-14.1-18.6-21.2-27.8c-5.3-7-10.9-14.1-16.6-21.1c-5.4-6.6-10.6-13.3-15.6-20.2
		c-4-5.5-8.6-10.6-12.8-16c-3.5-4.6-7.3-9.1-10.5-13.9c-2.4-3.5-5.4-6.6-8-10.1c-1.1-1.4-1.6-0.9-3.2-0.4c-4.6,1.3-8.4,4.1-13,5.6
		c-6.1,2-11.8,5.1-17.7,7.8c-4.9,2.3-9.8,4.6-14.7,6.9c-7,3.2-14.2,5.8-21,9.5c-2.8,1.6-6,2.6-9,3.8c-11.4,4.5-22.3,10.1-33.5,15
		c-6.9,3.1-13.9,6.1-20.9,9.1c-8.3,3.6-16.8,7.1-24.9,11c-5.9,2.8-12.1,5.2-18,7.9c-11.5,5.3-23,10.3-34.6,15.4
		c-7.5,3.3-14.8,7-22.3,10.2c-6.5,2.8-13.1,5.5-19.4,8.5c-6.4,3.1-13,6.2-19.5,8.9c-6.6,2.7-12.9,5.9-19.4,8.7
		c-7.1,3.1-14.3,6.4-21.4,9.5c-6.8,3-13.5,6.4-20.5,8.9c-7.1,2.5-13.5,6.7-20.5,9.5c-7.6,3-14.9,6.6-22.4,9.6c-0.9,0.4-2,0.6-3,0.8
		c-0.7,0.1-1.7,0.3-2-0.7c-0.3-0.9,0.4-1.2,1.1-1.7c4.2-3.2,9.4-4.5,14-6.6c7.2-3.3,14.3-6.7,21.6-9.9c3.5-1.5,6.9-3.3,10.4-4.6
		c4.7-1.7,8.9-4.3,13.4-6.1c4.8-2,9.7-4,14.4-6.1c4.3-1.9,9-3.2,13-5.9c2.6-1.8,5.8-2.3,8.7-3.8c6.5-3.4,13.6-5.6,20.1-9
		c6.9-3.6,14.2-6.5,21.4-9.5c6.9-3,14-6,20.8-9.1c9-4.1,18.2-8.1,27.1-12.5c7.2-3.6,14.9-6.4,22.3-9.6c6.8-3,13.6-5.9,20.1-9.5
		c3.4-1.9,7.3-2.8,10.9-4.6c9-4.5,18.5-8,27.8-12.2c6.8-3,13.5-6.3,20.2-9.3c3.9-1.7,7.7-3.7,11.9-5c4.4-1.4,8.3-4.1,12.6-5.9
		c3.7-1.6,7.5-3,11.2-4.8c5.5-2.8,11.3-5.1,17-7.5c6.6-2.8,12.8-6.5,19.7-9c-5.5,0.8-10.9,1.4-16.2,3.2c-4.5,1.5-9.4,1.8-14,3
		c-10.3,2.7-20.7,4.9-31.1,7.4c-5,1.2-10.3,1.9-15.1,3.7c-5.6,2.1-11.5,2.1-17.1,3.9c-9.8,3.1-20,4.6-29.9,7.3
		c-7.1,1.9-14.3,2.9-21.3,5.3c-3.1,1.1-6.6,1.1-9.9,1.9c-8.2,2-16.4,4.3-24.6,6.3c-7.7,1.9-15.6,2.9-23.1,5.3
		c-5.9,1.9-12.1,2-17.9,3.9c-9.3,2.9-18.9,4.7-28.3,7.2c-5.6,1.5-11.2,2.1-16.7,3.7c-10.2,2.9-20.8,4.8-31,7.5
		c-6.1,1.7-12.6,2.4-18.6,4.8c-3.5,1.4-7.8,1.4-11.7,2.3c-6.8,1.6-13.5,4-20.4,5.3c-8.9,1.7-17.7,4-26.5,6.2
		c-6.1,1.5-12.3,2.1-18.3,3.9c-9.8,2.8-19.7,4.8-29.5,7.3c-7.3,1.8-14.9,2.8-22,5.5c-3.4,1.3-7.4,1.1-11,2.1
		c-9.8,2.7-19.7,4.8-29.5,7.4c-5,1.3-10.2,1.9-15.2,3.4c-9.3,2.8-18.9,4.9-28.4,6.9c-6.2,1.3-12.4,2.8-18.5,4.5
		c-5.9,1.7-12.1,2-17.9,3.9c-7.2,2.4-14.6,3.9-21.9,5.7c-7.4,1.9-15,3.1-22.3,5.3c-6.2,1.8-12.6,2.2-18.6,4
		c-9.5,2.8-19.2,4.7-28.7,7.2c-5.4,1.5-11.1,1.7-16.3,3.7c-5.9,2.3-12.3,2.2-18.2,4c-9.2,2.8-18.7,4.6-28,7.1
		c-5.8,1.6-11.8,2.1-17.5,3.9c-2.2,0.7-4.4,1.8-6.8,2.1c-1.2,0.2-3.1,1-3.6-1.1c-0.5-2.3,1.7-2.2,2.8-2.4c7.3-1.8,14.8-2.9,22-5.1
		c5.1-1.6,10.4-2.4,15.6-4.3c4-1.4,8.6-1.5,12.9-2.5c9.6-2.3,19.1-5,28.8-6.8c6.3-1.2,12.3-3.1,18.5-4.6c5.8-1.4,11.8-2.1,17.5-3.7
		c11.3-3.2,22.7-5.6,34.1-8.1c5.7-1.3,11.5-2.6,17-4.7c3.3-1.2,6.8-1.1,10.3-1.9c10.6-2.8,21.2-5.2,31.8-7.7
		c5.1-1.2,10.3-1.9,15.1-3.6c6-2.1,12.4-2.1,18.2-4.1c5.3-1.8,10.9-1.7,15.9-3.8c4.8-2.1,10-2.3,14.8-4.2c3.9-1.5,8.6-1.6,12.9-2.6
		c9.5-2.3,18.9-4.8,28.5-6.6c6.4-1.2,12.6-3.2,18.9-4.8c5.8-1.5,11.8-1.9,17.5-3.8c8.6-2.9,17.4-4.5,26.1-6.4
		c6.5-1.4,12.9-3.1,19.2-4.8c5.9-1.6,12.2-1.8,17.8-3.9c5.2-2,10.8-2,15.9-3.8c6-2,12.3-2.5,18.2-4.1c9.5-2.7,19.2-4.8,28.8-7.1
		c9.5-2.2,19.1-4.2,28.4-7.1c4.9-1.5,10.1-1.6,14.8-3.3c8-2.9,16.6-3.4,24.6-6.2c3-1.1,6.4-1,9.5-1.7c6.8-1.7,13.5-4.1,20.4-5.3
		c9.1-1.6,17.9-4.2,26.9-6.3c6.1-1.4,12.4-2,18.3-3.9c9.5-3,19.2-4.7,28.8-7.1c10-2.5,19.9-5.1,29.9-7.2c5.4-1.1,10.6-2.5,15.9-3.9
		c11.2-2.9,22.6-5.1,33.7-7.9c10-2.6,19.9-5.2,30-6.9c0.8-0.1,0.9-0.8,1.1-1.4C949.8,98.8,952.5,97.2,955.4,97.7z"/>
	<path style="fill:#909090;" d="M1100.5,372.8c3.3,9.1,6.7,18.2,10.4,27.2c4,9.6,7.6,19.3,11.4,28.9c3,7.7,5.5,15.5,8.9,23
		c4.5,10,7.7,20.5,12.3,30.5c2.6,5.6,4.9,11.7,6.4,17.9c0.4,1.8,1.8,2.8,2.2,4.3c0.4,1.3,1.1,2.9-0.7,3.7c-1.7,0.7-2.3-0.8-2.8-2
		c-2.5-6.4-4.7-12.8-7.3-19.1c-4.4-10.4-8.1-21-12.2-31.5c-3.6-9.1-7.4-18.2-10.8-27.4c-3.1-8.3-6.6-16.3-9.9-24.5
		c-2.8-7.2-5.6-14.4-8.4-21.5c-1.2-3.2-2.6-6.3-3.9-9.3c-1.5,9.3-2.5,18.7-2.9,28.3c-0.3,8.6-0.3,17.3-1.7,25.7
		c-2,11.4-1.8,22.9-3,34.2c-0.4,4,0.2,8.3-0.8,12c-2.7,9.9-1.2,20-3,29.9c-0.2,1,0,2.1-1.6,2.2c-1.6,0-1.7-1-1.6-2.1
		c0.4-5.8,0.7-11.7,1.2-17.5c0-0.5,0.4-1,0.4-1.5c0-10.7,2.7-21.2,2.6-32c0-4.2-0.2-8.7,0.8-12.8c2.6-11.2,1.9-22.6,3.1-33.8
		c0.5-4.3-0.4-8.9,0.9-12.8c2.4-7.1,0.4-14.4,3-22.2c-4.8,3.6-5.7,8.4-8.3,12.2c-6.2,8.8-10.7,18.7-16.7,27.7
		c-3.6,5.5-6.4,11.5-9.8,17.2c-3,5.2-6.7,10-9.4,15.4c-3.9,7.8-9.1,14.9-13.2,22.6c-4.8,9-10.6,17.3-15.5,26.3
		c-2.1,3.8-4.4,7.6-6.7,11.4c-0.8,1.4-2.1,2.4-3.4,1.8c-1.6-0.7-0.1-2,0.1-3c0.4-3.4,2.9-5.7,4.5-8.3c3.8-6.3,7.3-12.9,11.3-19.2
		c3.3-5.1,6.1-10.6,9.5-15.7c2.8-4.3,5.1-8.9,7.8-13.3c3.6-6.1,7-12.3,10.9-18.2c1.8-2.7,3.1-5.8,4.8-8.6c4-6.7,8-13.4,12-20.1
		c2.1-3.4,4.2-6.9,6.1-10.3c2.3-4.1,4.4-8.2,7.3-11.9c0.5-0.6,0.8-1.4,0.3-2.4c-4.2,2.5-7.3,6-10.8,9.3
		c-5.8,5.5-10.9,11.7-17.4,16.6c-4.4,3.4-8.3,7.5-12,11.7c-4.3,4.8-9.3,8.9-13.9,13.3c-5.6,5.4-11.1,11.1-16.8,16.4
		c-4.7,4.3-9.5,8.4-13.8,13.1c-3.7,3.9-7.4,7.9-11.5,11.3c-4.7,3.9-9,8.2-13.3,12.5c-3.2,3.2-6.3,6.6-9.6,9.7
		c-3,2.9-6.5,5.3-9.6,8.2c-1.6,1.5-2.4,3.7-4.6,4.7c-1.2,0.5-2.3,1.2-3.2,0.2c-1-1.1,0.5-1.6,1-2.4c3.6-5.6,9.3-9.1,13.9-13.6
		c4.5-4.3,8.8-8.8,13.3-13.2c2.6-2.6,5.2-5.3,8.1-7.6c5.3-4.1,9.5-9.2,14.4-13.7c3.6-3.3,6.9-7,10.8-10c4.3-3.4,8.2-7.4,11.7-11.6
		c4.7-5.6,10.7-9.8,15.9-14.9c5.6-5.6,11-11.4,17.1-16.5c6.3-5.3,12-11.3,17.7-17.1c5.7-5.8,12.5-10.3,17.4-16.8
		c2.7-3.5,5-3,8.1,0.3c6.3,6.8,12.9,13.3,19.2,20.2c4.3,4.8,9.4,8.7,13.3,14.1c3.2,4.5,7.6,8.2,11.8,11.9c4.9,4.3,8.7,9.5,13.3,14
		c5.6,5.4,11.1,11,16.3,16.8c4.8,5.3,9.5,10.7,14.8,15.5c7.6,7,14,15.1,21.3,22.4c4.3,4.2,8.9,8.1,12.4,13.2
		c2.2,3.2,5.3,6.2,8.6,8.6c1.5,1,2.2,2.3,1.1,3.5c-1.2,1.3-2.6,0.3-3.7-0.9c-7.5-8-14.9-16-22.5-23.9c-2.8-2.9-6.4-5.2-8.8-8.4
		c-3.7-4.9-8-9.1-12.5-13.2c-3.6-3.3-7.1-6.7-10.1-10.3c-3.5-4.4-7.6-8.2-11.4-12.2c-3.1-3.2-6.4-6.3-9.3-9.7
		c-4.2-4.6-8.3-9.2-12.8-13.6c-6.7-6.5-13-13.4-19.3-20.2c-4.9-5.2-9.9-10.3-15.1-15.1c-1.3-1.2-1.1-3.9-3.7-4.1
		c-0.5-0.4-0.2-1.7-1-1.3C1099.5,371.3,1099.7,372.4,1100.5,372.8z"/>
	<path style="fill:#909090;" d="M152.5,284.4c3.7,0,7.3,0,11,0c0.7,2.4,2.5,1.5,4,1.5c3.7,1.7,7.6,2.6,10.9,5.3
		c5.4,4.4,9.1,9.9,12.1,16c0.7,2.2-0.5,4.9,2.1,6.5c0,3.9,0,7.8,0,11.7c-2.5,1.6-1.7,4.2-2.1,6.5c-2.2,4.8-4.8,9.3-8.3,13.2
		c-1.1,1.2-2.6,2-3.9,3c-1,0.3-2.2,0.4-2.4,1.9c-1.6,0.7-3.3,1.1-4.6,2.3c-1.4,0.2-3.4-0.9-3.9,1.6c0,0-0.1,0-0.1,0
		c-0.6,0-1.3,0.1-1.9,0.1c0,0.1,0,0.2,0,0.4c0.6,0.1,1.2,0.2,1.9,0.3c-0.7,7.9,3.1,15,4.3,22.5c1,6.6,2.5,13.3,4.5,19.7
		c1.9,6,2,12.4,4,18.2c1.8,5.3,2.3,10.7,3.6,16c2.6,10.5,4.4,21.1,7.4,31.5c1.7,5.8,1.8,11.9,3.8,17.5c2.2,6,2.5,12.2,3.9,18.3
		c0.3,1.4,2.1,2,1.6,3.7c-0.3,0.9,0.3,2.2-1.4,2.3c-1.4,0.1-1.5-0.8-1.9-1.9c-2.1-6-3.2-12.3-4.6-18.5c-1.9-8.4-4-16.7-5.9-25.1
		c-1.8-8-3.1-16.1-5.4-23.9c-1.8-6.3-2-12.9-4-19c-3-9.7-4.5-19.8-7.2-29.5c-1.8-6.6-2.4-13.3-4.2-20.5c-2.2,4.1-1.8,8.1-2.5,11.9
		c-1.2,6.4-3,12.7-4.5,18.9c-1.2,5-1.7,10.3-3.5,15.2c-2.3,6.1-2.3,12.8-4.1,19c-2.9,10.1-4.6,20.5-7.2,30.7
		c-2.3,9.3-3.7,18.9-6.7,28.1c-0.4,1.2,0.1,3.4-2.3,2.7c-1.9-0.6-1.3-2.6-1-3.7c2-5.9,2.6-12.2,4.2-18.2c1.8-6.5,2.5-13.3,4.4-19.7
		c1.9-6.3,2.2-12.8,4-19c2.9-10.1,4.7-20.5,7.2-30.7c1.5-6.1,1.9-12.4,4.1-18.2c2-5.4,1.7-11.2,4.3-16.3c0.2-0.4-0.1-1-0.3-1.8
		c-2.2,1.3-3.6,2.7-4.9,4.7c-3.2,4.7-7,9-10.5,13.6c-4.5,5.9-8.6,12.1-13.4,17.8c-5.7,6.7-10.6,14-16.5,20.6
		c-3.9,4.3-6.7,9.5-10.4,13.9c-2.7,3.2-5.2,6.5-7.7,9.9c-4.4,6-9.1,11.7-13.7,17.5c-3.2,4-5.8,8.4-9.6,12c-3.5,3.3-6,7.7-8.7,11.7
		c-1.3,1.9-3.2,3.2-4.2,5.4c-0.5,1.1-1.9,1-2.8,0.4c-0.9-0.6-0.7-1.8-0.2-2.5c1.6-2.5,3.2-5.1,5.2-7.3c4.9-5.6,9.2-11.7,13.8-17.5
		c2.7-3.4,5.2-7.1,8.3-10.1c2.3-2.2,3.5-5,5.5-7.3c6.2-7.1,12.1-14.6,17.6-22.2c5.8-8.1,12.5-15.5,18.1-23.8
		c3.5-5.2,8.4-9.5,11.9-14.8c2.7-4.1,5.7-8,8.7-11.7c4.5-5.4,8.2-11.3,13-16.3c0.9-1,1.6-1.9,1.8-3.2c0.1-0.2,0.3-0.5,0.4-0.7
		c-0.2-0.1-0.4-0.1-0.6-0.2c-1,0.1-2,0.2-3,0.2c-1.7-0.3-3.3-0.3-5,0c-1-0.1-2-0.2-3-0.3c-3.3-0.8-6.1-2.9-9.6-3
		c-5.6-2.3-10.2-5.7-13.3-11.1c0.1-1.2-0.6-1.5-1.6-1.6c0-2.2-2-3.5-2.2-5.6c-0.4-1.4,0.4-3.4-1.8-4c-0.1-0.5-0.2-1-0.3-1.4
		c0.3-0.9,0.4-1.8-0.4-2.5c0-3.9,0-7.8,0-11.7c0.8-0.7,0.7-1.6,0.4-2.5c0.1-0.7,0.3-1.4,0.4-2.1c1.9-0.4,1.4-2,1.7-3.3
		c3.5-10.7,11.6-16.4,21.8-19.9C149.4,285.8,151.5,287,152.5,284.4z M158.1,350.9c17.6,0.4,31.3-14.4,31.5-31.2
		c0.1-17.3-13.4-31.5-31.5-31.7c-16.8-0.2-31.7,14.8-31.7,31.6C126.3,336.8,141.7,351.8,158.1,350.9z"/>
	<path style="fill:#909090;" d="M1521.8,381c-5.1,3.9-9.2,8.9-13.8,13.3c-7.1,6.8-14,14-21,20.9c-6.5,6.5-13.8,12.4-19.5,19.5
		c-6.9,8.6-15.1,15.9-22.7,23.7c-8,8.2-16.1,16.2-24.1,24.3c-5.2,5.3-10.3,10.6-15.6,15.9c-0.7,0.7-2,1.8-3.1,0.7
		c-0.9-0.9-0.4-2.1,0.4-3.2c2.6-3.7,6.3-6.4,9.4-9.6c7.1-7.5,14.5-14.8,21.9-22c6.6-6.5,13.3-13.1,19.9-19.7
		c4.5-4.4,8.9-8.7,12.8-13.7c3.6-4.6,8.1-8.4,12.3-12.5c4.5-4.5,9-8.9,13.6-13.4c4.4-4.4,8.9-8.7,13.3-13.1
		c4.3-4.3,8.5-8.8,12.8-13.1c2.9-3,6.1-5.8,8.9-8.9c1.5-1.7,3.8-2,5.3,0.9c3.2,6.3,6.8,12.3,10.7,18.2c1.6,2.4,2.7,5.3,4.2,7.9
		c5,8.3,9.7,16.8,14.6,25.2c3.2,5.5,6.4,11.2,9.4,16.9c2.8,5.4,5.8,10.9,9.5,15.8c1.6,2.1,2.6,4.7,3.8,7c3.4,6.8,7.8,13,11.4,19.7
		c3.3,6.2,7,12.2,10.5,18.3c0.6,1.1,0.7,2.2,0.7,3.4c0,0.9,0.1,1.9-1.3,1.9c-0.9,0-1.5-0.1-2-1.2c-3.1-6.9-6.9-13.4-10.9-19.9
		c-4.5-7.2-8.3-14.7-12.5-22.1c-5.5-9.6-11.1-19.1-16.6-28.7c-4.5-7.7-8.8-15.6-13.3-23.3c-5.6-9.7-11.2-19.4-16.8-29.1
		c-0.4-0.6-0.7-1.3-1.3-2c0.2,4.9-0.9,9.9,0.4,14.8c0.3,1.1,0.2,2.4,0.1,3.5c-0.4,8.6,0.1,17.4,1.1,25.8c1.3,10.8,1.6,21.6,2.1,32.4
		c0.6,10.4,1.1,20.8,1.8,31.2c0.2,3.2,1.3,6.6,1.3,10.1c0,1,0.6,2.5-1.4,2.7c-2.2,0.2-1.6-1.5-1.8-2.7c-0.9-6.2,0.2-12.7-1-18.7
		c-2.4-11.9-1.8-23.9-2.6-35.8c-0.5-8.3-2-16.6-2.1-25c-0.1-11.9-1.5-23.7-1.4-35.6c0-1.4-0.4-2.5-1.8-3.6
		c-2.1,8.3-6.1,15.7-9.6,23.2c-3.4,7.2-6.5,14.5-9.8,21.7c-3.3,7.2-6.9,14.4-9.6,21.9c-2,5.7-4.6,11.3-7.5,16.5
		c-1.9,3.4-3.1,7.1-4.9,10.6c-3.7,7.1-6.4,14.6-9.5,21.9c-0.9,2.1-2.1,4-3,6.1c-0.5,1.1-1.3,1.2-2.2,1.1c-1.4-0.2-1-1.3-1.1-2.1
		c-0.2-2.1,1.9-2.9,2.4-4.6c2.4-7.9,6.3-15.2,9.7-22.7c2.8-6.1,5.6-12.4,8.6-18.4c2-4.1,3.9-8.5,5.5-12.9c2.5-6.9,6.2-13.4,9.2-20.2
		c5.4-12,10.7-24,15.9-36.1c0.4-0.8,0.4-1.7,0.7-2.6c0.5-0.2,0.9-0.8,0.5-1.1C1522.2,379.9,1522.1,380.7,1521.8,381z"/>
	<path style="fill:#909090;" d="M739.2,593.1c-4,4.4-7.9,8.8-11.9,13.2c-4.9,5.4-9.3,11.2-14.2,16.6c-5.3,5.8-9.8,12.2-15.1,18
		c-5.5,6.1-10.2,12.9-15.8,18.8c-7.1,7.6-13.5,15.8-20.4,23.6c-4.6,5.2-9.2,10.7-13.6,16.1c-2.8,3.5-6.1,6.9-8.9,10.3
		c-3,3.7-6.8,6.7-9.1,11c-0.7,1.3-1.8,3.1-3.5,1.7c-1.3-1.1-0.3-2.9,0.5-3.9c3.8-4.6,8-8.8,11.6-13.6c2.3-3.1,5-5.9,7.3-9
		c2.3-3,5-6,7.6-8.9c3.5-3.8,6.9-7.7,10.1-11.8c3-3.8,6.3-7.2,9.5-10.9c2.8-3.2,5.2-6.6,8.2-9.7c5.2-5.4,9.2-11.7,14.7-16.9
		c2.8-2.7,5.5-6,7.8-9.2c3.2-4.3,6.8-8.2,10.2-12.3c4.4-5.4,8.8-10.8,13.5-15.9c3.1-3.4,6.1-7.1,9-10.6c1.8-2.2,5.4-3.7,5.3-7.4
		c1,0,2,0,3,0c1.8,3.8,3.5,7.6,5.5,11.3c2.7,5.1,5.6,10.1,8.5,15.2c3,5.4,6.2,10.6,8.9,16.2c3.1,6.4,6.3,12.7,10.3,18.6
		c1.5,2.2,2.6,4.8,3.6,7.1c4.1,9,9.5,17.3,13.8,26.1c3.9,8.1,8.7,15.9,13,23.8c2.8,5.2,5.5,10.5,8.2,15.8c0.6,1.2,1.8,2.8-0.2,3.6
		c-1.8,0.7-2.4-0.7-3.2-2.3c-4.1-8.4-8.9-16.4-13.4-24.6c-2.9-5.3-5.6-10.8-8.5-16.1c-3.7-6.7-7.5-13.3-10.8-20.1
		c-2.8-5.9-6.7-11.3-9.2-17.4c-2.4-5.9-6.1-11.3-9.4-16.8c-1.5-2.5-2.9-5.2-4-7.7c-2.4-5.8-6.4-10.6-8.5-16.5
		c-0.3-0.9-1.6-1.5-2.9-2.2c1.7,5.8-0.9,12,2.2,17.6c0.3,0.6,0.1,1.6,0.1,2.3c0.5,10,0.2,20.2,1.8,30c1.9,11.7,1.9,23.4,3.1,35
		c0.4,4.2-0.4,8.6,0.9,12.4c2.2,6.3,0.8,12.8,2.1,19c0.2,0.8,0.4,2.1-0.6,2.5c-1.1,0.5-2.6,0.5-2.5-1.3c0.2-2.5-0.8-4.9-0.9-7.4
		c-0.3-6.1,0.4-12.5-1-18.3c-2.2-9.1-0.9-18.5-2.9-27.6c-0.1-0.3,0-0.5,0-0.8c-0.8-14.2-3-28.2-3.3-42.5c-0.1-3.9,0.1-7.9-0.8-11.6
		c-0.8-3.1-1.5-6.1-1.3-10.5c-2.1,3.1-3,5.7-3.9,8c-2.8,7.3-6,14.5-9.2,21.6c-3,6.9-5.8,13.9-9.2,20.7c-2.1,4.1-3.8,8.6-5.5,12.9
		c-2.8,7.1-6.3,14-9.4,21c-1.7,3.8-3.1,7.8-4.7,11.6c-2,4.7-4.1,9.3-6.1,14c-1,2.2-1.6,4.6-2.8,6.6c-0.5,0.8-1.3,2.7-2.9,2
		c-1.5-0.7-0.9-2.3-0.5-3.5c2-4.9,4.4-9.7,6.5-14.5c2.1-4.8,4-9.9,6.1-14.8c2.9-6.7,5.3-13.6,9-19.9c2.5-4.3,3.7-9.4,5.8-14.1
		c3.1-7,6.7-13.8,9.4-21c1.5-4,3.5-7.8,4.9-11.9c1.5-4.3,3.3-8.7,5.8-12.7c1.5-2.3,1.8-5.3,2.7-8c1.1,0,1.7-0.5,1.4-1.6
		c-0.1-0.3-0.5-0.6-0.7-0.6C739.4,591.5,739.6,592.5,739.2,593.1z"/>
	<path style="fill:#909090;" d="M571,351.5c3.6,5.1,7.7,9.8,12.3,14c3.4,3.1,5.8,7,9.1,10.2c8.8,8.7,16.6,18.3,25.2,27.2
		c6.6,6.9,13,13.9,19.4,21.1c7.1,8.1,14.7,15.8,21.7,23.9c5.5,6.4,11.3,12.4,16.9,18.8c4.1,4.7,8.3,9.2,12.5,13.9
		c5.5,6.1,10.7,12.4,16.6,18.1c3.7,3.7,6.7,8,10.4,11.6c1.1,1.1,1.6,2.4,0.4,3.4c-0.9,0.7-1.8,0.1-2.9-0.9
		c-4.9-4.5-9.4-9.6-13.5-14.6c-5.4-6.5-11.5-12.5-16.9-18.9c-4.5-5.3-9.5-10.3-14.1-15.5c-3.1-3.4-7.1-6.1-9.4-9.9
		c-3.7-5.9-9.7-9.5-13.3-15.5c-2.1-3.5-6.4-5.5-8.8-8.9c-3.3-4.7-8-8.1-11.2-12.9c-2.1-3.2-5.8-5.3-8-8.5
		c-3.9-5.7-9.9-9.3-13.5-15.2c-1.9-3.2-5.8-5.1-7.9-8.2c-3.4-4.8-8.4-8-11.5-13.1c-1.9-3.1-5-5.5-7.7-7.9c-2-1.8-3.2-4.2-5.1-6
		c-1.8-1.6-2.6-1.1-3.8,0.1c-6.1,6-12.2,12.1-18.2,18.1c-5.7,5.7-11.4,11.4-17.2,17.2c-5.8,5.8-11.5,11.6-17.3,17.4
		c-6.3,6.3-12.7,12.7-19,19c-7.3,7.3-14.7,14.7-22,22c-6.3,6.3-12.7,12.7-19,19c-7.1,7.1-14.3,14.3-21.4,21.4
		c-7.4,7.4-14.8,14.8-22.3,22.2c-1,1-2.3,1.2-3.1,0.2c-0.6-0.7-0.4-1.7,0.6-2.7c8-7.5,15.4-15.5,23.3-23.1
		c8.2-7.8,15.7-16.3,23.7-24.2c8.2-8.2,16.7-16,24.8-24.3c7.4-7.5,14.9-14.9,22.4-22.3c8.1-7.9,15.7-16.3,23.7-24.3
		c9.3-9.2,18.9-18.1,28-27.5c4.5-4.7,9.8-8.5,13.2-14.2C568.8,351.4,569.9,351.4,571,351.5z"/>
	<path style="fill:#909090;" d="M380.3,590.9c2,10.9-0.1,21.9,1.3,32.8c0.8,6.7-0.4,13.7,0.3,20.4c2.1,18.8,1.8,37.6,2.4,56.4
		c0.2,4.9,0.4,9.9,0.6,14.8c0,1.1,0.5,2.5-1.5,2.6c-1.9,0.1-1.7-1.3-1.7-2.4c0.3-8.2-1.1-16.4-0.9-24.7c0.3-12.2-0.5-24.3-1-36.5
		c-0.3-9.3,1.1-18.8-0.8-27.8c-2.5-11.9,0.7-23.9-2.5-34.9c-3.2,6.7-7.1,13.9-10,21.6c-1.9,5-4,9.9-6.1,14.8
		c-2.6,6.3-5.4,12.6-8.3,18.8c-1.9,4.1-3.4,8.4-5.1,12.7c-2.2,5.4-4.9,10.5-7,15.9c-2.7,7.4-6.2,14.4-9.2,21.7
		c-2.4,5.7-5.1,11.2-7.4,17c-0.6,1.5-1.7,3.3-3,2.8c-2-0.8-0.8-2.8-0.2-4.3c3.1-8.1,6.9-16,10.3-23.9c3.6-8.4,7-16.9,10.5-25.3
		c2.6-6.1,5.2-12.2,8.3-18.1c1.8-3.6,3.4-7.4,4.7-11.2c1.5-4.4,4-8.2,5.7-12.4c2-4.9,4.1-9.8,6.1-14.8c3.2-8,6.5-15.9,10.5-23.5
		c1-2,3.6-1.7,4.4-0.3c2.9,5,5.4,10.3,8,15.6c1.8,3.6,2.9,7.4,5.2,10.8c2.1,3.1,2.7,7,4.5,10.5c4.4,8.4,8.5,17,12.2,25.7
		c3.6,8.6,8.2,16.8,11.8,25.4c3.4,8.1,7.4,16.1,11.4,24c3,6,5.1,12.3,8.8,17.9c0.8,1.2,1,2.9,1.3,4.4c0.2,0.9,0.1,1.9-1.2,2
		c-1,0.1-1.5-0.2-2-1.3c-2.7-6.6-5.8-13-9-19.3c-4.6-9-8.8-18.2-13-27.3c-3.2-7-6.6-14-9.8-21c-3.8-8.3-6.8-17.1-12.1-24.8
		c-2.2-3.2-2.7-7.3-4.7-10.8c-2.8-4.9-5.1-10.1-7.2-15.4C383.9,596.4,381.7,594,380.3,590.9z"/>
	<path style="fill:#67AC60;" d="M861.2,877.9c0.1-5.2,0.3-10.4,0.2-15.6c-0.1-3.4,1.8-3.3,4.2-3.3c2.9-0.1,3.3,1.8,2.9,3.8
		c-0.6,3.2-0.3,6.5-0.4,9.7c0.5,2.9-0.4,5.8,0.5,8.6c0,1.4-0.1,2.8-0.1,4.2c0,0.6,0.1,1.2,0.1,1.9c0,0.7,0,1.4,0,2.1
		c0,0.6,0,1.3,0,1.9c-0.1,1.1-0.2,2.3-0.2,3.4c-0.4,0.5-0.2,1,0.4,1.1c0.5,0.1,0.9-0.2,1-0.8l0.1-0.1c2.1,0.2,3.1-1.5,4.4-2.6
		c1.1,0.1,2-0.3,2.6-1.3c2.1-0.6,4.1-0.2,6.1,0.3c1.4,1.7,0.9,3.6,0.5,5.5c-2.4,0.9-2.4,3-2.7,5c-0.2,0.4-0.4,0.8-0.5,1.2
		c-2.7,3.7-4.6,7.7-6.2,11.9c-1.5,5.3-5.2,9.7-6.1,15.2c-2,0.2-3.3,2.2-5.4,1.9c-0.3-0.1-0.5-0.2-0.8-0.3c-0.1-1.5-0.8-2.6-2.4-3.1
		c0.2-1.5-0.4-2.7-1.1-3.9c-2.2-7.9-6.6-14.9-9.6-22.5c-0.1-0.2-0.7-0.2-1.1-0.3c-0.1-0.5-0.2-1.1-0.3-1.6c-0.4-2.1-0.6-4.4-3-5.5
		c0-0.8,0-1.6,0-2.4c2.7-2.7,5.7-1.7,8.7-0.9c0.5,0.3,1.1,0.6,1.6,0.9c0.8,1.9,2.7,2.3,4.2,3.2c1.6,0.8,2.6,0.3,2.6-1.5
		C861.4,888.6,861.3,883.2,861.2,877.9z"/>
	<path style="fill:#67AC60;" d="M670.5,1134.7c-9.8,0.9-17.7-3.9-24.4-10.1c-6.3-5.8-10.4-14.1-11-22.5
		c-1.5-23.8,14.6-39.9,33.3-41.5c24.2-2.1,39.8,16.8,40.5,35.4C709.8,1118.2,692.5,1136.1,670.5,1134.7z M672.6,1064.4
		c-20.1,0.8-33.8,14.5-33.6,33.4c0.2,18.7,12.9,32.5,33.3,33.1c18.3,0.6,33.9-15,33.7-33.4C705.8,1078.7,690.6,1064.7,672.6,1064.4z
		"/>
	<path style="fill:#67AC60;" d="M756.9,1133.9c-5.5,1.6-11.5-1-16.3-4c-9.9-6.4-17.9-14.7-18.4-27.8c-0.2-5.4-0.8-10.8,0.7-16.1
		c1.5-5.5,4.1-10.6,8.4-14.5c3.3-3,6.4-6.2,10.7-8.2c9.2-4.4,18.5-5,27.7-1.9c7,2.4,13,6.6,17.7,13c8.8,11.6,9.3,24.1,4.7,36.9
		c-3.5,9.8-10.8,16.7-20.9,20.5C766.8,1133.2,762.4,1133.9,756.9,1133.9z M758.8,1063.6c-19.6-0.4-34.1,14.9-34,32.5
		c0.1,19.5,13.9,33.6,33.8,33.8c18,0.2,32.9-14,33.3-32.9C792.2,1078.8,776.9,1063,758.8,1063.6z"/>
	<path style="fill:#67AC60;" d="M841.7,1134.8c-9.6,0.8-17.2-3.5-23.7-9.4c-6.8-6.1-11.3-14.5-11.7-23.3
		c-1.3-24.9,15-39.8,33.4-41.4c24.1-2.2,39.8,17.4,40.4,35.5C880.8,1117.6,863.9,1136,841.7,1134.8z M843.6,1064.4
		c-18.7,0.2-33.9,14.7-33.9,33.2c0,18.5,14.7,33.2,33.6,33.4c18.5,0.2,33.5-14.9,33.6-33C877.1,1079,861.9,1064.9,843.6,1064.4z"/>
	<path style="fill:#67AC60;" d="M1100.5,1138.2c-13.9-0.8-24-7.3-30.9-19.5c-2.6-4.6-3.7-9.3-3.5-14.4c0.3-5.3-1-10.7,1.1-15.9
		c3.7-9.3,9.4-16.7,18.7-21c9-4.1,18.2-5,27.7-1.9c9.4,3.1,16.3,9,21.1,17.9c5.1,9.7,5.1,19.5,2.4,29.5c-1.9,7.3-6.6,13-12.3,17.6
		C1117.7,1136.3,1109.5,1138.5,1100.5,1138.2z M1135.5,1101c0.5-19.7-14.8-33.5-33-33.1c-21.8,0.4-33.5,14.1-33.8,33
		c-0.2,18,12.4,32.8,33.6,33.3C1119.8,1134.6,1136.5,1120.1,1135.5,1101z"/>
	<path style="fill:#67AC60;" d="M1154.2,1108.1c-0.4-7.8-1.3-15.7,2.2-23.1c2.8-5.9,6.7-10.8,12.1-15c6.9-5.4,14.4-7.1,22.6-7
		c10,0,18.4,3.8,25.4,11c7.4,7.6,11.1,16.5,10.7,27.1c-0.3,9.8-4.1,17.9-10.9,25c-7.9,8.2-17.6,11.9-28.7,11
		c-9.5-0.7-17.9-4.1-24.5-11.7c-4-4.7-7.1-9.7-8.5-15.7C1156.1,1108.6,1155.1,1108.4,1154.2,1108.1z M1156.9,1099.9
		c0.4,19.9,15.1,33.4,33.8,33.2c19-0.2,33.2-13.3,33.3-33.5c0.1-17.9-14.2-32.8-33.7-32.8C1171.5,1066.8,1157,1081.7,1156.9,1099.9z
		"/>
	<path style="fill:#67AC60;" d="M583.6,1137.3c-10.4-0.5-20.1-3.8-26.8-11.7c-5.9-7-10.4-15.2-9.1-25.5c0.5-3.8-0.3-7.9,1.2-11.6
		c2.1-5.3,4.2-10.6,9-14.5c3-2.3,5.4-5.3,8.8-7.3c6.8-4,14.2-4.2,21.5-3.7c10.7,0.8,19.2,6.4,25.6,14.8c3.2,4.1,4.9,9.1,6.2,14.4
		c0.9,3.7,1.1,7.6,0.7,10.7c-0.9,6.9-2.7,13.8-7.2,19.7C606.9,1131.6,594.1,1137.5,583.6,1137.3z M584.7,1066.9
		c-18.4-0.7-33.8,14.6-33.7,32.4c0.1,20.6,14.7,34.1,33,33.8c20.7-0.2,33.1-12.7,34-32.8C618.8,1082.1,604.1,1066.7,584.7,1066.9z"
		/>
	<path style="fill:#67AC60;" d="M500.7,1062.6c7.2,1.2,13.5,4.3,18.7,9.4c10.2,10.1,13.3,22.3,10,36.1c-3.6,14.9-13.6,24.3-28,27.1
		c-10.8,2.1-22,0.8-31.4-7.5c-5.3-4.7-8.1-10.7-11.4-16.6c-1-1.8-0.5-3.9-0.4-5.8c0.4-5.4-1.8-10.7-0.3-16.3c1-3.9,3.4-7,4.9-10.5
		c2.7-6.4,8.6-9.3,13.8-13c3.3-2.4,7.3-1.4,10.7-3.1C491.8,1062.4,496.3,1062,500.7,1062.6z M494,1066.1c-18-0.9-33.4,14.4-33.2,33
		c0.3,18.4,15.2,33.2,33.6,32.8c21.4-0.4,33.5-16.1,33.5-33.1C527.8,1081.2,515.3,1065.7,494,1066.1z"/>
	<path style="fill:#67AC60;" d="M967.3,1108.1c-1.3,3.8-2.3,7.7-4.5,11.2c-5.9,9.4-14.1,15.3-25,17.2c-12.2,2.1-22.8-0.8-31.9-9.7
		c-5.3-5.2-9.7-11-10.6-18.3c-1.1-9.5-1.8-19.6,3.9-28.1c9.2-13.7,23.5-21.2,42.7-15.9c13.9,3.8,22.3,13.7,25.3,27.9
		C967.3,1097.6,967.3,1102.9,967.3,1108.1z M931.7,1066.9c-18.2-0.4-33.7,14-33.7,32.4c0,20.5,14.6,33.8,33,33.8
		c20.1,0,33.3-12.8,34.1-32.9C965.8,1082.1,950.9,1066.5,931.7,1066.9z"/>
	<path style="fill:#67AC60;" d="M1054.3,1104.2c-2,9.1-5.2,17.3-12.9,23.7c-9.4,7.9-19.7,10.7-31.5,8.6c-10.7-1.9-18.5-8.1-24.2-17
		c-3-4.7-5.6-9.8-4.8-15.9c0.6-4.4-0.8-9,0.4-13.3c1.6-5.6,4.4-10.8,8.1-15.4c2-0.1,3-1,3-3c5.4-4.3,11.2-7.6,18.2-8.4
		c9.8-1.1,19-0.4,27.5,5.9c6.1,4.5,10.3,10,13.4,16.6c0.9,2,1.2,4.2,1.7,6.4C1053.9,1096.3,1052.4,1100.4,1054.3,1104.2z
		 M1017.8,1066.9c-18.4-0.5-33.9,14.1-33.9,32.6c0,20.4,14.8,33.6,33.1,33.7c19.5,0.1,33.5-13.2,34-32.9
		C1051.6,1081.9,1036.8,1066.6,1017.8,1066.9z"/>
	<path style="fill:#909090;" d="M1056.3,335.8c-0.4-1.1-0.8-2.2-1.3-3.3c-0.6-1.3,0.5-3.4-1.8-3.8c-0.1-0.8-0.2-1.6-0.3-2.4
		c0.2-0.7,0.2-1.3-0.4-1.8c0-3.9,0-7.8,0-11.7c0.8-0.7,0.7-1.6,0.4-2.5c2.1-9.1,7.1-16.7,14.8-21.4c10.3-6.2,21.4-7.8,33.2-2.6
		c10.1,4.4,16.3,12.3,19.8,21.9c2.7,7.5,2.4,15.5-1.3,23.5c-3,6.5-7,11.5-12.4,15.8c-1.5,0.1-2.9,0.3-3,2.2
		c-1.9,1.7-4.4,1.2-6.5,2.1c-1.6,0.7-3.9-0.7-4.8,1.8c-3.4,0-6.7,0.1-10.1,0.1c-1.2-2.6-3.7-1.1-5.6-1.8c-8.1-1.6-14-6.2-18.3-13.1
		C1058.5,337.4,1058.3,336,1056.3,335.8z M1087.3,287.3c-18.4-0.8-31.9,14.7-31.6,31.3c0.4,17.7,12.7,30.7,30.9,31.4
		c17.7,0.7,32.1-14.5,32.2-31.3C1119.1,302.1,1104.8,286.3,1087.3,287.3z"/>
	<path style="fill:#909090;" d="M416.4,538.4c0,4.6,0,9.3,0,13.9c-2.4,0.9-1.2,3.2-1.8,4.8c-2.8,7-7.4,12.7-13.1,17.6
		c-2,0.3-3.9,0.9-5,2.9c-1.3,1.2-3.2,0.5-4.6,1.4c-1.6,0.7-3.9-0.7-4.8,1.8c-3.5,0.1-7,0.3-10.4,0.4c-1.3-2.9-4-1.8-6.2-2.3
		c-7.3-1.8-12.7-6.3-17.2-12.2c0.1-1.3-0.2-2.3-1.7-2.5c-0.3-0.5-0.5-1-0.8-1.5c0.1-0.7,0-1.3-0.6-1.7c-0.2-0.5-0.4-1-0.6-1.5
		c-0.5-1.3,0.5-3.4-1.8-3.8c-0.1-0.8-0.2-1.6-0.3-2.4c0.2-0.7,0.2-1.3-0.4-1.8c0-3.9,0-7.8,0-11.7c0.8-0.7,0.7-1.6,0.4-2.5
		c3.5-14,12.2-22.8,26.3-26.2c0.7,0.2,1.3,0.2,1.8-0.4c5.9-0.2,11.7-0.7,17.4,1.4c9.8,3.7,16.6,10.2,20.5,19.9
		c0.2,0.6,0.7,1,1.1,1.6C415.2,535.2,414,537.5,416.4,538.4z M381.9,514.3c-17.3-1.6-31.9,14.7-31.7,31
		c0.1,16.6,13.8,31.2,31.5,31.2c18.4,0,31.6-14.7,31.6-31C413.3,528.5,400.6,513.3,381.9,514.3z"/>
	<path style="fill:#909090;" d="M730,581.1c-0.5-0.1-1-0.2-1.5-0.2c-0.6-2.4-2.4-1.6-4-1.6c-0.6-0.3-1.3-0.7-1.9-1
		c-0.5-1.7-1.7-2.3-3.4-2.3c0,0,0,0,0,0c-0.2-1.1-0.9-1.2-1.8-1.1c-4.2-2.6-7.1-6.3-9.1-10.7c-0.2-1-0.8-1.5-1.8-1.6
		c-0.6-2.3-1.3-4.6-1.9-6.8c-0.7-5.9-0.8-11.7-0.1-17.6c1.8-11.1,8.7-18.5,18.3-23.3c9.9-5,20-5,30.1-0.1
		c10.1,4.9,16.1,13,19.4,23.5c-0.3,0.7-0.3,1.3,0.3,1.8c0.1,0.7,0.2,1.4,0.3,2.2c0,3,0,5.9,0,8.9c-0.1,0.7-0.1,1.4-0.2,2.2
		c-0.6,0.5-0.6,1.1-0.3,1.8c-0.2,0.7-0.3,1.4-0.5,2.2c-0.6,0.5-0.6,1.1-0.4,1.8c-2.7,4.7-5.2,9.6-9.4,13.3c-1.4,1.3-3,2.4-4.5,3.6
		c-1.6,0.3-3,0.7-3.4,2.5c-0.6,0.3-1.3,0.6-1.9,0.9c-3.8-0.7-6.8,2.4-10.4,2.6c-3.1-0.1-6.2-0.1-9.3-0.2
		C731.8,580.9,731,580.9,730,581.1z M738.9,515.1c-19.6-0.6-32.1,14.7-32,31.3c0.1,17.3,11.1,30.1,30.8,31.4
		c17.1,1.1,32-14.1,32.3-30.9C770.3,529.3,755.1,514,738.9,515.1z"/>
	<path style="fill:#909090;" d="M533.9,321.5c0-3.9,0-7.8,0-11.7c0.8-0.7,0.7-1.6,0.4-2.5c0.1-0.7,0.3-1.4,0.4-2.1
		c1.9-0.4,1.4-2,1.7-3.3c3.2-9.4,10-15.1,18.9-18.8c8.9-3.7,17.7-3.8,26.5,0c9.3,4,15.2,11.2,19.3,20.1c0.7,2.2-0.5,4.9,2.1,6.5
		c0,3.9,0,7.8,0,11.7c-2.5,1.6-1.8,4.2-2.1,6.5c-1.5,5.2-4.9,9.5-8.4,13.2c-2.9,3-6.3,6-10.7,7.1c-1.5,0.2-3.4-0.8-4,1.6
		c-0.3,0-0.5,0.1-0.7,0.2c-1.2-0.2-2.3-0.4-3.3,0.5c-1,0.1-2,0.2-2.9,0.3c-1.1-0.3-2.3-0.3-3.4,0.1c-1.5-0.1-3-0.2-4.5-0.3
		c-1-0.9-2.2-0.7-3.3-0.5c-0.2-0.1-0.5-0.2-0.7-0.2c-0.6-2.5-2.5-1.4-4-1.6c-6.5-2-11.1-6.3-14.9-11.8c0.1-1.2-0.6-1.5-1.6-1.6
		c0-2.2-2-3.5-2.2-5.6c-0.4-1.3,0.6-3.4-1.8-3.9c-0.1-0.5-0.2-1-0.3-1.6C534.6,323.1,534.7,322.2,533.9,321.5z M568.7,284.2
		c-17.1-0.7-31.7,14.7-31.8,31.4c-0.1,17.1,16.1,31.4,31.5,31.6c17,0.2,31.8-15.5,32-31.4C600.5,299.2,586.1,283.4,568.7,284.2z"/>
	<path style="fill:#909090;" d="M1503.2,359.4c-6.6-2.3-11.4-6.8-15.1-12.5c-0.7-1.1-0.2-3.1-2.3-3.1c-0.7-2.1-1.4-4.3-2.2-6.4
		c-0.6-1.6,0.9-3.9-1.7-4.8c0-3.9,0-7.8,0-11.7c2.6-1.5,1.4-4.3,2.1-6.5c2.2-8.3,8-14.1,14.8-18.4c5.6-3.5,12.1-5.2,18.9-4.5
		c1.7,0.2,3.4,0.2,5.1,0.2c0.5,0.6,1.1,0.6,1.8,0.4c9.6,2.6,16.7,8.4,22,16.8c1,1.6,1.3,3.3,2.2,4.9c0.3,1,0.1,2.3,1.7,2.4
		c0.2,0.7,0.3,1.4,0.5,2.2c-0.3,0.9-0.4,1.8,0.4,2.5c0,3.9,0,7.8,0,11.7c-0.8,0.7-0.7,1.6-0.4,2.5c-0.1,0.5-0.2,1-0.3,1.4
		c-2.2,0.5-1.4,2.5-2,3.9c-4,8.5-9.5,15.5-18.6,19c-1.4,0.3-3.4-0.8-4,1.6c-0.3,0-0.5,0.1-0.7,0.2c-1.2-0.2-2.3-0.4-3.3,0.5
		c-3.6,0-7.2,0-10.9,0c-1-0.9-2.2-0.7-3.3-0.5c-0.2-0.1-0.5-0.2-0.7-0.2C1506.6,358.5,1504.7,359.5,1503.2,359.4z M1516.9,295.2
		c-17.3-1.1-31.7,15.1-31.8,31.3c-0.1,16.7,15.1,31.7,31.6,31.7c17.2,0,31.5-14.7,31.7-31.5C1548.7,310.2,1533.9,293.8,1516.9,295.2
		z"/>
	<path style="fill:#909090;" d="M926.3,90.1c-4.2-2.6-7-6.3-9.1-10.7c-0.2-1-0.8-1.5-1.8-1.6c-0.6-2.3-1.3-4.6-1.9-6.8
		c-0.8-5.9-0.8-11.7-0.1-17.6c1.7-9.8,7.5-17.2,15.5-22c10-6.1,21.1-6.8,32.2-1.9c9.2,4,14.6,11.6,19.2,20c-0.2,0.7-0.2,1.3,0.5,1.8
		c0.2,0.7,0.3,1.4,0.5,2.2c-0.3,0.9-0.4,1.8,0.4,2.5c0.1,0.5,0.1,0.9,0.2,1.4c0,3,0,5.9,0,8.9c-0.1,0.7-0.2,1.4-0.3,2.2
		c-0.6,0.5-0.6,1.1-0.3,1.8c-0.2,0.7-0.3,1.4-0.5,2.2c-0.6,0.5-0.6,1.1-0.4,1.8c-3.3,7-8.2,12.7-14,17.8c-1.6,1.4-3.8,1-5.2,2.5
		c-4.9,0.3-9.4,2.9-14.4,2.7c-1.8-0.1-3.5-0.2-5.3-0.3c-0.7-0.7-1.6-0.7-2.6-0.5c-0.5-0.1-1-0.2-1.5-0.2c-0.6-2.4-2.4-1.6-4-1.6
		c-1.6-0.8-3.1-1.6-4.7-2.4C928.6,90.7,927.8,89.9,926.3,90.1z M947.6,30.4c-19.6-0.6-31.9,15.2-31.9,31.4
		c0,16.5,12.7,30.8,31.3,31.5c15.6,0.6,31.8-14.3,31.9-31.3C978.9,44.5,963.6,29.1,947.6,30.4z"/>
	<path style="fill:#67AC60;" d="M349.5,749.5c1.8-12.1,8.9-20.4,19.7-25.2c4.7-2.1,9.9-4,15.4-3.2c11.1,1.7,20.4,5.8,26.8,15.8
		c5.1,8.1,7.1,16.4,5.1,25.5c-1.5,6.6-4.5,12.5-9.3,17.5c-5.6,5.8-12.3,8.7-19.9,10.6c-4.3,1.1-8.4,0.8-12.2-0.4
		c-7.8-2.4-15.1-6.1-19.7-13.3c-2.6-4.1-5.7-8.1-5.8-13.3C349.5,759,349.5,754.2,349.5,749.5z M383,786.9
		c17.5,0,31.2-14.1,31.2-30.9c0-17.4-13.8-31.1-31.4-31c-17.2,0.1-31,13.3-31.2,30.8C351.4,773,365.6,786.8,383,786.9z"/>
	<path style="fill:#909090;" d="M1081.9,586.4c-17.5,1.1-33.6-16.6-32.7-35.3c0.8-16.6,14.9-33.2,33.8-32.8
		c16.9,0.3,33.8,15.1,33.7,34.9C1116.5,571.4,1101.2,588,1081.9,586.4z M1082.4,582.4c19.5-0.5,31.3-14.4,31-30
		c-0.3-16.1-11.1-29.6-31.1-29.7c-17.2-0.1-30.3,12.8-30.5,29.6C1051.5,568.5,1065.2,582.5,1082.4,582.4z"/>
	<path style="fill:#67AC60;" d="M574,756.8c-2.3-19.3,16.7-34.8,34.1-34.3c18.3,0.6,34.2,16,33.8,34.7c-0.5,19.7-15.8,35-36.6,34.7
		C590.6,791.6,572.2,777.9,574,756.8z M607.8,787.7c17.2,0.6,31.1-14.2,31-30.8c-0.1-16.1-13.8-30.8-31.4-30.7
		c-16.4,0.1-30.9,14-30.8,30.8C576.7,774.3,591.7,788.4,607.8,787.7z"/>
	<path style="fill:#909090;" d="M756.8,790.5c-11.8,0.7-19.6-4.8-26.4-12.2c-3.6-3.9-6.6-8.8-7.3-13.3c-0.9-5.2-0.8-11.1,0.4-16.6
		c2.2-9.8,7.8-16.9,16.6-21.9c9-5.1,18.7-5.2,27.7-1.8c10.9,4.1,18,12.3,21.1,24.5c2.9,11.4-1.2,20.3-6.6,29.2
		c-2.4,3.9-7,6.1-11.1,8.4C766.4,789.6,761.5,791.8,756.8,790.5z M756.1,786.6c17.3-1.9,30.4-11.9,30.5-30.4
		c0.1-16-12.3-29.6-30.6-29.5c-20.7,0.1-31.3,14.9-30.8,29.6C725.7,774.8,736.7,784.4,756.1,786.6z"/>
	<path style="fill:#67AC60;" d="M407.6,1131.8c-19.9,1.9-34.4-16.8-34-35.2c0.3-18.1,16.4-34.1,34.9-33.5
		c18.6,0.6,33.7,16.5,33.8,34.9C442.4,1114.7,427,1133.8,407.6,1131.8z M376.7,1097.6c-0.8,15.9,13.6,31.1,31,30.8
		c19.7-0.4,31.3-14.2,31.3-30.6c0-17.2-12.3-30.2-31.1-30.8C391.7,1066.3,375.8,1080.9,376.7,1097.6z"/>
	<path style="fill:#909090;" d="M275.3,754.7c-1.4-19.6,15.5-34.9,33-34.3c20.7,0.7,33.7,14.8,33.9,34.6
		c0.2,18.2-13.8,32.4-33.6,33.5C291.6,789.4,273.2,771.9,275.3,754.7z M308.3,784.2c18-0.3,30.7-13.5,30.7-30
		c0-16.5-13.2-29.9-30.7-29.7c-19.3,0.2-30.6,13.3-30.9,29.6C277.2,769.6,288.5,783.9,308.3,784.2z"/>
	<path style="fill:#67AC60;" d="M1003.8,587.2c-17.9,1.4-32.6-16.2-32.9-33.6c-0.3-18.6,16-35.5,34.3-35.1
		c19.4,0.4,34.2,16.2,34.4,34.5C1039.9,570.6,1025.2,589,1003.8,587.2z M1004.9,583.5c18.3,1.1,31.6-14.1,31.8-29.9
		c0.2-17.3-13.7-31.1-30.8-31.4c-17.4-0.3-31.4,13.3-31.8,30C973.8,568.8,986.9,584.4,1004.9,583.5z"/>
	<path style="fill:#67AC60;" d="M18.3,552.8c-2.4-18.9,17.4-35.1,34.1-34.4c17.7,0.7,33.8,15.5,33.8,34.6
		c0,18.6-15.6,34.6-35.2,34.6C34.4,587.5,16.3,572.5,18.3,552.8z M52.3,583.5c16.7,1.2,31-13.8,31-30.3c0-17.1-14.4-31-31-31.1
		c-16.9-0.1-31.4,13.9-31.2,31.1C21.2,569.4,35,584.8,52.3,583.5z"/>
	<path style="fill:#909090;" d="M682,788.1c-8.5,1.1-15.2-2.5-21.5-7.7c-10-8.3-12.9-19-11.4-31.4c1.4-11.5,7.8-19.4,17.5-24.5
		c6-3.2,12.5-4.9,19.7-3.6c12.3,2.1,22,10.1,26.8,20.9c2.6,5.9,2.6,11.3,2.3,17.3c-0.5,9.8-5.8,16.4-13.1,22.2
		C696.3,786,689.9,789.3,682,788.1z M682.2,724.3c-19.7,0.7-31,14.1-31.2,30c-0.1,15.7,11.4,29.7,31,29.9
		c17.4,0.2,30.7-13.8,30.7-29.9C712.7,738.1,699.1,724.7,682.2,724.3z"/>
	<path style="fill:#909090;" d="M899.5,552.4c-0.9-18,15.2-34.4,33.4-33.9c18.6,0.6,33.6,15.3,33.7,34.7c0.2,18.2-15.4,33-33.5,33.5
		C914.5,587.2,898,569.2,899.5,552.4z M932.6,582.4c16.7,0,30.9-13,30.8-29.9c-0.2-17.3-13.3-29.9-30.6-29.9
		c-17.7,0-30.5,12.5-30.7,29.7C901.9,569,915.3,582.3,932.6,582.4z"/>
	<path style="fill:#67AC60;" d="M1123.3,553c-2.1-19.4,17.7-35,34-34.6c17.6,0.4,33.7,15.3,34,34.4c0.3,18.5-15.9,35.2-35.2,34.8
		C1139,587.3,1121.6,571.5,1123.3,553z M1156.8,583.5c19.8,0.7,31.5-13.9,31.8-30.1c0.3-16.9-12.6-30.6-30.8-31.3
		c-16.9-0.6-31.6,13.8-31.8,30.3C1125.9,568.7,1139.5,584.6,1156.8,583.5z"/>
	<path style="fill:#67AC60;" d="M123.9,517.8c18.6-0.7,34.3,15.3,34,34.4c-0.3,20.2-15.3,35.1-36.2,34.8
		c-14.9-0.2-32.2-14.1-32-35.8C89.8,533.6,106.6,516.4,123.9,517.8z M124,582.8c18.4,0.7,31.3-14.1,31.4-30.5
		c0.1-16.2-12.7-30.6-30.9-30.9c-17.4-0.3-31.4,14-31.7,30.3C92.5,568.2,107.2,583.9,124,582.8z"/>
	<path style="fill:#909090;" d="M1463.6,585.6c-18.5,1.1-34.3-16.7-33.8-34.6c0.5-18.1,14.8-33.7,33.6-33.3
		c18.9,0.3,33.6,14.8,33.7,34.6C1497.2,570.1,1482.1,586,1463.6,585.6z M1463,581.6c19.6-0.8,31.2-14.5,31.1-30.1
		c-0.1-15.9-11.2-29.5-30.9-29.7c-17.4-0.2-30.6,13.3-30.8,29.8C1432.3,568,1446.8,581.1,1463,581.6z"/>
	<path style="fill:#67AC60;" d="M1580.5,544.6c-0.2-7.7,4.4-12.9,9.1-18c6.9-7.5,15.9-10.9,25.7-10.1c11.2,0.9,20.7,5.6,26.9,16
		c4.9,8,7.2,16.2,5.2,25.3c-1.4,6.6-4.5,12.3-9.3,17.4c-5.6,5.9-12.3,8.7-19.9,10.6c-4.8,1.2-9.2,0.6-13.6-0.8
		c-8.6-2.9-15.8-7.4-20.3-15.9c-1.8-3.3-3-6.6-3.8-10.2C1580.5,554,1580.5,549.3,1580.5,544.6z M1613.8,582
		c17.3,0.9,31.5-14.6,31.4-30.6c-0.1-17.7-13.9-31.2-31.2-31.3c-17,0-31,13-31.5,30.7C1582.1,567.4,1597.1,582.6,1613.8,582z"/>
	<path style="fill:#909090;" d="M1388.7,586.4c-19,1.3-34.3-16.7-33.7-34.5c0.7-18.5,14.6-33.8,33.6-33.3
		c18.9,0.4,33.3,15,33.6,34.5C1422.5,570.8,1407.1,587.5,1388.7,586.4z M1388.3,522.5c-17.5,0.8-30.5,12.9-30.7,30
		c-0.2,16.4,13.6,30,30.7,29.9c17,0,30.8-13.1,30.6-30C1418.7,535.2,1405.6,523.1,1388.3,522.5z"/>
	<path style="fill:#909090;" d="M456.7,788.2c-18.9,1.7-34.5-16.9-34.1-33.7c0.5-19.8,15.4-34.3,33.7-34.1
		c18.1,0.2,33.4,14.2,33.6,34.5C490.1,772.8,474.7,789.1,456.7,788.2z M456,724.3c-17.1,0.3-30.9,13.8-30.8,30.1
		c0,16.2,13.4,29.8,30.4,29.8c20,0,31.5-14.4,31.3-30C486.7,738.1,475.3,725.1,456,724.3z"/>
	<path style="fill:#67AC60;" d="M829.4,792.1c-19.5,1.9-35-16.6-34.1-35.4c0.9-17.5,15.6-34,35.3-33.3c18.8,0.6,33.1,16.5,33.3,34.9
		C864.1,774.7,848.7,794.2,829.4,792.1z M829.7,788.5c19.2,0.3,30.9-14,31-30.6c0.1-16.4-12.4-30.4-31.2-30.8
		c-17-0.3-31.4,14.7-31.3,30.7C798.2,774.1,812.4,789.7,829.7,788.5z"/>
	<path style="fill:#909090;" d="M1199.8,553.8c-1.6-20.5,15.9-34.9,32.9-34.4c17.9,0.5,33.3,13.8,33.5,34.5
		c0.2,18.5-14.7,32.7-32.9,33.6C1215.8,588.4,1197.5,571.4,1199.8,553.8z M1232.3,583.2c20.5-0.2,31.4-14.6,30.9-30
		c-0.6-18.5-11.8-29.2-30.9-29.5c-17.1-0.2-30.2,10.7-30.6,29.5C1201.4,569.5,1214,583.1,1232.3,583.2z"/>
	<path style="fill:#67AC60;" d="M1505.7,545.4c0.2-6.3,3.1-11.4,7.5-15.8c2.9-2.9,5.4-5.9,9.1-7.9c10.2-5.4,21-5.5,30.9-1
		c13.8,6.3,22.9,21.9,19.4,38c-2.3,11-8.4,19.3-19,24.7c-5.8,3-11.7,3.4-17.4,3.5c-6.6,0.1-12.7-2.8-18.2-7.1
		c-6-4.6-9.4-10.4-11.8-17.2c-0.3-0.9-0.3-2-0.4-3.1C1505.7,554.8,1505.7,550.1,1505.7,545.4z M1538.8,582.8
		c17.6,1,31.4-14.3,31.6-30.4c0.2-16.7-13.7-31.1-31.3-31c-17.8,0-31,13.6-31.4,30.2C1507.3,568.2,1521.8,583.8,1538.8,582.8z"/>
	<path style="fill:#67AC60;" d="M162.7,546.2c0.3-6.4,3.4-11.3,7.6-16c4.3-4.7,9.1-8.5,15.2-10.2c12.1-3.5,23.4-1.1,32.8,6.9
		c4.8,4,8.2,9.5,10,16c1.6,5.5,2.6,10.8,1.3,16.3c-2.3,10.1-7.4,18.1-16.6,23.7c-9.3,5.6-19.2,5.5-28.8,3c-7.2-1.9-13.5-6.5-17.3-14
		c-1.9-3.8-4.2-7.2-4.4-11.5C162.7,555.6,162.7,550.9,162.7,546.2z M196.1,583.5c18,1.1,31.4-14.5,31.3-30.4
		c-0.1-17.3-13.8-30.9-31.5-30.9c-17-0.1-31.3,13.8-31.1,30.9C164.9,569.3,177.9,584.6,196.1,583.5z"/>
	<path style="fill:#D5F3D2;" d="M847.6,901.7c0.4,0.1,1,0.1,1.1,0.3c2.9,7.6,7.4,14.6,9.6,22.5c-1.8-1.3-2.3-4.5-5.6-3.7
		c-0.6,0.2-1-1.1-1.1-1.9c-0.3-3.4-2.1-6.5-1.7-10.1C850.3,906.3,846.6,904.7,847.6,901.7z"/>
	<path style="fill:#D5F3D2;" d="M861.2,877.9c0.1,5.3,0.2,10.6,0.3,15.9c0,1.8-1,2.3-2.6,1.5c-1.6-0.8-3.5-1.3-4.2-3.2
		c0.8-1.4,0.8-3.7,3.6-2.7c1.2,0.4,1.1-1.2,1.1-2c0.1-2.2,0.1-4.4,0-6.7C859.4,879.5,859.3,878.1,861.2,877.9z M858.5,892.7
		c0.2-0.1,0.5-0.2,0.6-0.3c0.1-0.2-0.1-0.5-0.2-0.6c-0.4-0.2-0.7,0-0.8,0.4C858.1,892.3,858.4,892.5,858.5,892.7z"/>
	<path style="fill:#D5F3D2;" d="M868.6,891.2c0-0.6,0-1.3,0-1.9c0.6-0.2,1.4-0.2,1.4-1c0-0.9-0.9-0.8-1.4-1c0-0.6-0.1-1.2-0.1-1.9
		c3.2-0.8,5.3,1.7,5.8,6.8c-1.3,1.2-2.3,2.8-4.4,2.6C869.3,893.6,871.5,891.5,868.6,891.2z"/>
	<path style="fill:#DAF0F9;" d="M704.5,538.1c-0.7,5.9-0.6,11.7,0.1,17.6c-1.4-0.1-2.1-0.7-2.1-2.2c0.1-4.3,0-8.7,0-13
		C702.5,539.1,703.1,538.3,704.5,538.1z"/>
	<path style="fill:#DAF0F9;" d="M913.4,53.4c-0.6,5.9-0.7,11.7,0.1,17.6c-1.4-0.1-2.1-0.7-2.1-2.2c0.1-4.3,0-8.7,0-13
		C911.4,54.3,912,53.5,913.4,53.4z"/>
	<path style="fill:#D5F3D2;" d="M868.6,881.1c-0.8-2.8,0-5.8-0.5-8.6c3.8-0.4,1.4-4.2,3.4-6.5c0.1,3.1,1.7,5.6-1.2,7.5
		c-1.2,0.8-0.6,2.2-0.7,3.3C869.4,878.2,870.2,880,868.6,881.1z"/>
	<path style="fill:#D5F3D2;" d="M967.3,1108.1c0-5.2,0-10.5,0-15.7c0.4,0.2,1.2,0.4,1.3,0.7c0.7,4.8,0.7,9.5,0,14.3
		C968.5,1107.7,967.7,1107.9,967.3,1108.1z"/>
	<path style="fill:#D5F3D2;" d="M853.1,891.3c-3-0.8-6-1.9-8.7,0.9c-0.9-2.6,0.9-3.5,2.8-3.7C849.5,888.2,852.4,887.7,853.1,891.3z"
		/>
	<path style="fill:#D5F3D2;" d="M874.1,914.8c1.6-4.2,3.6-8.3,6.2-11.9C880,907.8,877.9,911.7,874.1,914.8z"/>
	<path style="fill:#D5F3D2;" d="M349.5,749.5c0,4.7,0,9.4,0,14.2c-0.8-0.2-1.5-0.5-1.5-1.5c0-3.7,0-7.5,0-11.2
		C348,750.1,348.7,749.7,349.5,749.5z"/>
	<path style="fill:#DAF0F9;" d="M946.8,97.2c5,0.2,9.5-2.3,14.4-2.7c-1,2.6-4.1,1.6-5.7,3.2c-2.9-0.5-5.6,1.1-8.5,0.9
		C946.9,98.1,946.8,97.6,946.8,97.2z"/>
	<path style="fill:#D5F3D2;" d="M1580.5,544.6c0,4.7,0,9.4,0,14.2c-0.8-0.2-1.5-0.5-1.5-1.5c0-3.7,0-7.5,0-11.2
		C1579,545.1,1579.7,544.8,1580.5,544.6z"/>
	<path style="fill:#D5F3D2;" d="M1505.7,545.4c0,4.7,0,9.4,0,14.2c-0.8-0.2-1.5-0.5-1.5-1.5c0-3.7,0-7.5,0-11.2
		C1504.2,545.9,1504.8,545.6,1505.7,545.4z"/>
	<path style="fill:#D5F3D2;" d="M162.7,546.2c0,4.7,0,9.4,0,14.2c-0.8-0.2-1.5-0.5-1.5-1.5c0-3.7,0-7.5,0-11.2
		C161.2,546.7,161.9,546.3,162.7,546.2z"/>
	<path style="fill:#DAF0F9;" d="M981.8,66.3c0-3,0-5.9,0-8.9C985.7,60.1,985.6,63.4,981.8,66.3z"/>
	<path style="fill:#D5F3D2;" d="M500.7,1062.6c-4.4-0.7-8.8-0.2-13.3-0.2c0.2-0.8,0.5-1.5,1.5-1.5c3.4,0,6.8-0.1,10.2,0
		C500.2,1060.9,500.7,1061.5,500.7,1062.6z"/>
	<path style="fill:#DAF0F9;" d="M772.9,551c0-3,0-5.9,0-8.9C776.4,544.6,776.4,548.5,772.9,551z"/>
	<path style="fill:#D5F3D2;" d="M1054.3,1104.2c-1.9-3.8-0.3-7.9-1-11.8c0.8,0.2,1.6,0.5,1.5,1.5
		C1054.7,1097.3,1055.6,1100.8,1054.3,1104.2z"/>
	<path style="fill:#DAF0F9;" d="M142.9,351.6c3.5,0.1,6.4,2.2,9.6,3C149.4,355.6,144,353.9,142.9,351.6z"/>
	<path style="fill:#DAF0F9;" d="M741.9,581.8c3.6-0.2,6.6-3.2,10.4-2.6c-1.7,2.7-4.9,2-7.3,3.2c-1,0-2,0-3,0
		C741.9,582.2,741.9,582,741.9,581.8z"/>
	<path style="fill:#DAF0F9;" d="M601.2,328c0.3-2.3-0.3-4.9,2.1-6.5C603.6,323.9,604.7,326.7,601.2,328z"/>
	<path style="fill:#DAF0F9;" d="M190.6,331.9c0.4-2.3-0.4-4.9,2.1-6.5C193,327.9,194.1,330.6,190.6,331.9z"/>
	<path style="fill:#DAF0F9;" d="M1484.1,314.3c-0.7,2.2,0.5,5-2.1,6.5C1481.7,318.3,1480.6,315.6,1484.1,314.3z"/>
	<path style="fill:#DAF0F9;" d="M192.7,313.7c-2.6-1.6-1.4-4.3-2.1-6.5C194,308.5,193,311.2,192.7,313.7z"/>
	<path style="fill:#DAF0F9;" d="M603.3,309.8c-2.6-1.6-1.4-4.3-2.1-6.5C604.7,304.5,603.6,307.3,603.3,309.8z"/>
	<path style="fill:#D5F3D2;" d="M883.1,891.2c-2-0.5-4-0.9-6.1-0.3c-0.2-2.5,1.8-2.3,3.1-2.3C881.4,888.7,883.3,888.9,883.1,891.2z"
		/>
	<path style="fill:#DAF0F9;" d="M370.6,578.9c2.2,0.5,4.9-0.5,6.2,2.3C374.2,581.8,371.8,581.9,370.6,578.9z"/>
	<path style="fill:#D5F3D2;" d="M862.5,931.9c2.2,0.4,3.5-1.7,5.4-1.9c1.4,1.3,0.3,2-0.7,2.2C865.7,932.4,863.9,934.5,862.5,931.9z"
		/>
	<path style="fill:#DAF0F9;" d="M1076.9,352.1c1.8,0.6,4.4-0.8,5.6,1.8C1080.1,355.1,1078,355,1076.9,352.1z"/>
	<path style="fill:#D5F3D2;" d="M844.3,894.6c2.3,1.1,2.6,3.3,3,5.5C845.3,898.8,843.4,897.4,844.3,894.6z"/>
	<path style="fill:#D5F3D2;" d="M880.9,901.6c0.3-2,0.3-4.1,2.7-5C883.5,898.8,884.1,901.2,880.9,901.6z"/>
	<path style="fill:#DAF0F9;" d="M387.2,580.8c0.9-2.5,3.2-1.1,4.8-1.8C391.2,581.7,389.5,582.2,387.2,580.8z"/>
	<path style="fill:#DAF0F9;" d="M155.5,354.9c1.7-0.3,3.3-0.3,5,0C158.8,358,157.1,358,155.5,354.9z"/>
	<path style="fill:#DAF0F9;" d="M1092.6,353.8c0.9-2.5,3.2-1.1,4.8-1.8C1096.5,354.7,1094.9,355.2,1092.6,353.8z"/>
	<path style="fill:#DAF0F9;" d="M1482,332.5c2.6,0.9,1.2,3.2,1.7,4.8C1481.4,336.3,1480.9,334.7,1482,332.5z"/>
	<path style="fill:#DAF0F9;" d="M152.5,284.4c-1,2.6-3.1,1.4-4.9,1.5C148.8,283.9,150.5,283.8,152.5,284.4z"/>
	<path style="fill:#DAF0F9;" d="M1548.7,340.3c0.6-1.3-0.3-3.4,2-3.9C1551.8,338.7,1551.1,339.9,1548.7,340.3z"/>
	<path style="fill:#DAF0F9;" d="M992.4,1071.9c0,2-1,3-3,3C989.1,1072.6,990.1,1071.6,992.4,1071.9z"/>
	<path style="fill:#D5F3D2;" d="M859.4,928.5c1.5,0.4,2.2,1.5,2.4,3.1C859.5,931.6,858.6,930.7,859.4,928.5z"/>
	<path style="fill:#DAF0F9;" d="M396.6,577.6c1.1-2,2.9-2.6,5-2.9C400.2,576.3,398.9,577.9,396.6,577.6z"/>
	<path style="fill:#DAF0F9;" d="M414.7,557.1c0.6-1.6-0.7-3.9,1.8-4.8C416.1,554,417.8,556.5,414.7,557.1z"/>
	<path style="fill:#DAF0F9;" d="M416.4,538.4c-2.5-0.9-1.2-3.2-1.8-4.8C417.9,534.2,416,536.8,416.4,538.4z"/>
	<path style="fill:#DAF0F9;" d="M124,329.4c2.2,0.6,1.5,2.5,1.8,4C123.5,332.8,123.4,331.2,124,329.4z"/>
	<path style="fill:#DAF0F9;" d="M347.9,555.7c2.4,0.4,1.4,2.4,1.8,3.8C346.9,559.3,348.2,557.1,347.9,555.7z"/>
	<path style="fill:#DAF0F9;" d="M933.4,94.6c1.5-0.1,3.4-0.8,4,1.6C935.9,95.9,934,96.9,933.4,94.6z"/>
	<path style="fill:#DAF0F9;" d="M1526.2,361c0.5-2.4,2.5-1.4,4-1.6C1529.6,361.8,1527.6,360.7,1526.2,361z"/>
	<path style="fill:#DAF0F9;" d="M1503.2,359.4c1.5,0.1,3.4-0.9,4,1.6C1505.7,360.7,1503.8,361.7,1503.2,359.4z"/>
	<path style="fill:#DAF0F9;" d="M719.3,576c1.7,0,2.9,0.6,3.4,2.3C721,578.3,719.3,578.2,719.3,576z"/>
	<path style="fill:#DAF0F9;" d="M754.2,578.3c0.4-1.8,1.9-2.3,3.4-2.5C757.6,578.1,756,578.3,754.2,578.3z"/>
	<path style="fill:#DAF0F9;" d="M724.5,579.3c1.5-0.1,3.4-0.8,4,1.6C727.1,580.6,725.2,581.6,724.5,579.3z"/>
	<path style="fill:#DAF0F9;" d="M167.5,285.9c-1.5,0-3.4,0.9-4-1.5C164.9,284.7,166.8,283.7,167.5,285.9z"/>
	<path style="fill:#DAF0F9;" d="M578.1,349.9c0.5-2.5,2.5-1.4,4-1.6C581.5,350.7,579.5,349.7,578.1,349.9z"/>
	<path style="fill:#DAF0F9;" d="M555.1,348.4c1.5,0.2,3.4-0.9,4,1.6C557.6,349.7,555.7,350.7,555.1,348.4z"/>
	<path style="fill:#DAF0F9;" d="M167.5,353.9c0.5-2.5,2.5-1.4,3.9-1.6C170.9,354.7,168.9,353.6,167.5,353.9z"/>
	<path style="fill:#DAF0F9;" d="M1103.9,349.9c0.1-1.9,1.5-2.2,3-2.2C1107,350,1105.4,349.9,1103.9,349.9z"/>
	<path style="fill:#DAF0F9;" d="M534.6,325.6c2.4,0.5,1.3,2.5,1.8,3.9C533.8,329,534.9,327,534.6,325.6z"/>
	<path style="fill:#DAF0F9;" d="M1053.2,328.7c2.3,0.4,1.3,2.5,1.8,3.8C1052.3,332.3,1053.5,330.1,1053.2,328.7z"/>
	<path style="fill:#DAF0F9;" d="M1056.3,335.8c2,0.2,2.2,1.6,2.3,3.1C1056.4,339,1056.4,337.4,1056.3,335.8z"/>
	<path style="fill:#DAF0F9;" d="M1485.8,343.7c2.1,0,1.6,2,2.3,3.1C1485.9,346.9,1485.9,345.3,1485.8,343.7z"/>
	<path style="fill:#DAF0F9;" d="M536.5,301.9c-0.3,1.2,0.2,2.9-1.7,3.3C534.8,303.8,534.1,302,536.5,301.9z"/>
	<path style="fill:#DAF0F9;" d="M574,350.7c1-0.9,2.2-0.8,3.3-0.5C576.5,352,575.3,351.8,574,350.7z"/>
	<path style="fill:#DAF0F9;" d="M176,349.9c0.1-1.5,1.3-1.6,2.4-1.9C178.2,349.4,178.3,351.2,176,349.9z"/>
	<path style="fill:#DAF0F9;" d="M559.8,350.2c1.2-0.2,2.3-0.4,3.3,0.5C561.8,351.8,560.7,352,559.8,350.2z"/>
	<path style="fill:#DAF0F9;" d="M351.7,564.2c1.5,0.2,1.8,1.2,1.7,2.5C352.2,566.3,350.6,566.3,351.7,564.2z"/>
	<path style="fill:#DAF0F9;" d="M1507.9,361.2c1.2-0.3,2.3-0.4,3.3,0.5C1510,362.8,1508.8,363,1507.9,361.2z"/>
	<path style="fill:#DAF0F9;" d="M1522.1,361.7c1-0.9,2.2-0.7,3.3-0.5C1524.6,363,1523.4,362.8,1522.1,361.7z"/>
	<path style="fill:#DAF0F9;" d="M125.9,305.8c-0.3,1.2,0.2,2.9-1.7,3.3C124.2,307.7,123.5,305.9,125.9,305.8z"/>
	<path style="fill:#DAF0F9;" d="M926.3,90.1c1.6-0.2,2.3,0.5,2.4,2.1C927.2,92.3,926.3,91.7,926.3,90.1z"/>
	<path style="fill:#DAF0F9;" d="M1550.5,316.1c-1.6-0.1-1.4-1.4-1.7-2.4C1550.2,313.9,1552,313.9,1550.5,316.1z"/>
	<path style="fill:#DAF0F9;" d="M1551,335c-0.3-0.9-0.4-1.8,0.4-2.5C1552.4,333.5,1552.4,334.4,1551,335z"/>
	<path style="fill:#DAF0F9;" d="M123.7,311.2c0.3,0.9,0.4,1.8-0.4,2.5C122.2,312.7,122.3,311.8,123.7,311.2z"/>
	<path style="fill:#DAF0F9;" d="M1052.9,310.4c0.2,0.9,0.3,1.8-0.4,2.5C1051.4,311.9,1051.5,311,1052.9,310.4z"/>
	<path style="fill:#DAF0F9;" d="M981.6,56c-0.8-0.7-0.7-1.6-0.4-2.5C982.6,54.1,982.6,54.9,981.6,56z"/>
	<path style="fill:#DAF0F9;" d="M123.2,325.4c0.8,0.7,0.7,1.6,0.4,2.5C122.3,327.3,122.2,326.4,123.2,325.4z"/>
	<path style="fill:#DAF0F9;" d="M730,581.1c0.9-0.2,1.8-0.2,2.6,0.5C731.5,582.8,730.6,582.6,730,581.1z"/>
	<path style="fill:#DAF0F9;" d="M347.5,537.4c0.2,0.9,0.3,1.8-0.4,2.5C346,538.9,346.1,538,347.5,537.4z"/>
	<path style="fill:#DAF0F9;" d="M534.3,307.2c0.3,0.9,0.4,1.8-0.4,2.5C532.8,308.7,532.9,307.9,534.3,307.2z"/>
	<path style="fill:#DAF0F9;" d="M1551.4,320.8c-0.8-0.7-0.7-1.6-0.4-2.5C1552.4,318.9,1552.4,319.8,1551.4,320.8z"/>
	<path style="fill:#DAF0F9;" d="M938.9,96.4c0.9-0.2,1.8-0.2,2.6,0.5C940.3,98,939.5,97.9,938.9,96.4z"/>
	<path style="fill:#DAF0F9;" d="M533.9,321.5c0.8,0.7,0.7,1.6,0.4,2.5C532.9,323.4,532.8,322.5,533.9,321.5z"/>
	<path style="fill:#DAF0F9;" d="M1052.4,324.6c0.6,0.5,0.7,1.1,0.4,1.8C1051.9,326,1051.4,325.5,1052.4,324.6z"/>
	<path style="fill:#DAF0F9;" d="M538.6,335c1,0.1,1.7,0.4,1.6,1.6C539.3,336.4,538.6,336.1,538.6,335z"/>
	<path style="fill:#DAF0F9;" d="M375.6,510.8c-0.5,0.6-1.1,0.6-1.8,0.4C374.2,510.1,374.7,509.6,375.6,510.8z"/>
	<path style="fill:#DAF0F9;" d="M128,338.9c1,0.1,1.7,0.4,1.6,1.6C128.7,340.4,128,340,128,338.9z"/>
	<path style="fill:#DAF0F9;" d="M717.4,574.9c0.9-0.1,1.6,0,1.8,1.1C718.3,576.1,717.7,575.8,717.4,574.9z"/>
	<path style="fill:#DAF0F9;" d="M706.5,562.6c1,0.1,1.6,0.6,1.8,1.6C707.2,564.3,706.5,563.8,706.5,562.6z"/>
	<path style="fill:#DAF0F9;" d="M350.3,561c0.6,0.4,0.7,1,0.6,1.7C349.8,562.5,349.2,562.1,350.3,561z"/>
	<path style="fill:#DAF0F9;" d="M771.4,558.9c-0.2-0.7-0.2-1.3,0.4-1.8C773,558,772.5,558.5,771.4,558.9z"/>
	<path style="fill:#DAF0F9;" d="M772.4,554.9c-0.3-0.7-0.3-1.3,0.3-1.8C773.7,553.9,773.4,554.5,772.4,554.9z"/>
	<path style="fill:#DAF0F9;" d="M915.4,77.8c1,0.1,1.6,0.6,1.8,1.6C916,79.5,915.3,79.1,915.4,77.8z"/>
	<path style="fill:#DAF0F9;" d="M980.3,74.1c-0.2-0.7-0.2-1.3,0.4-1.8C981.8,73.3,981.3,73.8,980.3,74.1z"/>
	<path style="fill:#DAF0F9;" d="M981.2,70.2c-0.3-0.7-0.3-1.3,0.3-1.8C982.5,69.2,982.2,69.7,981.2,70.2z"/>
	<path style="fill:#DAF0F9;" d="M347.1,551.6c0.6,0.5,0.7,1.1,0.4,1.8C346.6,553,346.1,552.5,347.1,551.6z"/>
	<path style="fill:#DAF0F9;" d="M772.7,539.9c-0.6-0.5-0.6-1.1-0.3-1.8C773.4,538.6,773.7,539.2,772.7,539.9z"/>
	<path style="fill:#DAF0F9;" d="M567.7,351c1.1-0.4,2.3-0.4,3.4-0.1c0,0.2-0.1,0.4-0.1,0.5c-1.1,0-2.1,0-3.2,0
		C567.7,351.3,567.7,351.1,567.7,351z"/>
	<path style="fill:#DAF0F9;" d="M980.7,51.3c-0.6-0.5-0.6-1.1-0.5-1.8C981.3,49.8,981.8,50.3,980.7,51.3z"/>
	<path style="fill:#DAF0F9;" d="M1524.7,292.1c-0.7,0.2-1.3,0.2-1.8-0.4C1523.8,290.5,1524.3,291,1524.7,292.1z"/>
	<path style="fill:#D5F3D2;" d="M1154.2,1108.1c0.9,0.3,1.9,0.5,0.6,1.5C1154.1,1109.3,1154.1,1108.8,1154.2,1108.1z"/>
	<path style="fill:#DAF0F9;" d="M167.4,354.7c-0.6-0.1-1.2-0.2-1.9-0.3c0-0.1,0-0.2,0-0.4c0.6,0,1.3-0.1,1.9-0.1
		C167.4,354.2,167.4,354.4,167.4,354.7z"/>
	<path style="fill:#DAF0F9;" d="M163.4,354.6c0.2,0.1,0.4,0.1,0.6,0.2c-0.1,0.2-0.3,0.5-0.4,0.7
		C163.5,355.2,163.5,354.9,163.4,354.6z"/>
	<path style="fill:#FEFEFE;" d="M1100.5,372.8c-0.8-0.4-1-1.5-0.5-1.8c0.8-0.3,0.5,1,1,1.3C1100.9,372.5,1100.7,372.7,1100.5,372.8z
		"/>
	<path style="fill:#DAF0F9;" d="M158.1,350.9c-16.4,0.9-31.7-14.1-31.8-31.3c0-16.8,14.9-31.8,31.7-31.6
		c18.1,0.2,31.7,14.4,31.5,31.7C189.4,336.5,175.6,351.3,158.1,350.9z"/>
	<path style="fill:#FEFEFE;" d="M1521.8,381c0.3-0.3,0.4-1.1,1-0.7c0.4,0.4,0.1,0.9-0.5,1.1C1522.1,381.3,1521.9,381.2,1521.8,381z"
		/>
	<path style="fill:#FEFEFE;" d="M739.2,593.1c0.5-0.6,0.3-1.6,1.2-1.8c0.2,0,0.7,0.3,0.7,0.6c0.3,1.1-0.3,1.6-1.4,1.6
		C739.5,593.4,739.3,593.2,739.2,593.1z"/>
	<path style="fill:#FEFEFE;" d="M868.6,891.2c2.8,0.4,0.7,2.5,1.3,3.6c0,0-0.1,0.1-0.1,0.1c-0.5-0.1-0.9-0.2-1.4-0.3
		C868.5,893.4,868.6,892.3,868.6,891.2z"/>
	<path style="fill:#D5F3D2;" d="M868.4,894.6c0.5,0.1,0.9,0.2,1.4,0.3c-0.1,0.5-0.5,0.9-1,0.8C868.3,895.5,868.1,895.1,868.4,894.6z
		"/>
	<path style="fill:#FEFEFE;" d="M868.6,887.2c0.6,0.2,1.4,0.2,1.4,1c0,0.9-0.9,0.8-1.4,1C868.6,888.6,868.6,887.9,868.6,887.2z"/>
	<path style="fill:#D5F3D2;" d="M672.6,1064.4c18.1,0.3,33.2,14.3,33.4,33.2c0.2,18.4-15.5,34-33.7,33.4
		c-20.4-0.6-33.1-14.4-33.3-33.1C638.8,1078.9,652.5,1065.2,672.6,1064.4z"/>
	<path style="fill:#D5F3D2;" d="M758.8,1063.6c18-0.6,33.4,15.2,33.1,33.5c-0.3,18.9-15.3,33.1-33.3,32.9
		c-19.9-0.2-33.7-14.3-33.8-33.8C724.7,1078.5,739.2,1063.2,758.8,1063.6z"/>
	<path style="fill:#D5F3D2;" d="M843.6,1064.4c18.2,0.4,33.4,14.6,33.3,33.6c-0.1,18.1-15.1,33.1-33.6,33
		c-18.9-0.2-33.6-14.9-33.6-33.4C809.7,1079.1,824.9,1064.6,843.6,1064.4z"/>
	<path style="fill:#D5F3D2;" d="M1135.5,1101c1,19.1-15.7,33.6-33.2,33.2c-21.2-0.5-33.8-15.2-33.6-33.3c0.3-18.9,12-32.6,33.8-33
		C1120.8,1067.5,1136.1,1081.3,1135.5,1101z"/>
	<path style="fill:#D5F3D2;" d="M1156.9,1099.9c0.1-18.2,14.6-33.1,33.4-33.1c19.5,0,33.8,14.9,33.7,32.8
		c-0.1,20.2-14.3,33.3-33.3,33.5C1172.1,1133.3,1157.4,1119.8,1156.9,1099.9z"/>
	<path style="fill:#D5F3D2;" d="M584.7,1066.9c19.4-0.2,34.1,15.2,33.3,33.4c-0.9,20.2-13.2,32.6-34,32.8
		c-18.3,0.2-32.9-13.3-33-33.8C550.9,1081.4,566.3,1066.2,584.7,1066.9z"/>
	<path style="fill:#D5F3D2;" d="M494,1066.1c21.3-0.4,33.8,15.1,33.9,32.8c0.1,16.9-12.1,32.6-33.5,33.1
		c-18.4,0.4-33.3-14.4-33.6-32.8C460.5,1080.5,476,1065.1,494,1066.1z"/>
	<path style="fill:#D5F3D2;" d="M931.7,1066.9c19.2-0.4,34.1,15.2,33.3,33.3c-0.8,20.1-14,32.9-34.1,32.9c-18.4,0-33-13.3-33-33.8
		C898.1,1080.9,913.5,1066.5,931.7,1066.9z"/>
	<path style="fill:#D5F3D2;" d="M1017.8,1066.9c19-0.3,33.8,15.1,33.2,33.3c-0.6,19.7-14.5,33-34,32.9
		c-18.3-0.1-33.1-13.2-33.1-33.7C983.9,1081,999.4,1066.4,1017.8,1066.9z"/>
	<path style="fill:#DAF0F9;" d="M1087.3,287.3c17.5-1,31.7,14.8,31.6,31.4c-0.2,16.8-14.6,32-32.2,31.3
		c-18.2-0.8-30.5-13.7-30.9-31.4C1055.5,302,1068.9,286.5,1087.3,287.3z"/>
	<path style="fill:#DAF0F9;" d="M381.9,514.3c18.7-1,31.4,14.2,31.4,31.3c0,16.3-13.2,31-31.6,31c-17.7,0-31.4-14.6-31.5-31.2
		C350,529,364.7,512.7,381.9,514.3z"/>
	<path style="fill:#DAF0F9;" d="M738.9,515.1c16.2-1.1,31.4,14.2,31.1,31.8c-0.3,16.8-15.2,32-32.3,30.9
		c-19.7-1.3-30.6-14.1-30.8-31.4C706.8,529.8,719.3,514.5,738.9,515.1z"/>
	<path style="fill:#DAF0F9;" d="M568.7,284.2c17.4-0.7,31.8,15.1,31.7,31.6c-0.2,16-15,31.6-32,31.4c-15.4-0.2-31.6-14.5-31.5-31.6
		C537,298.9,551.6,283.4,568.7,284.2z"/>
	<path style="fill:#DAF0F9;" d="M1516.9,295.2c17-1.4,31.8,15,31.5,31.4c-0.2,16.9-14.5,31.6-31.7,31.5c-16.5,0-31.7-15-31.6-31.7
		C1485.2,310.2,1499.6,294.1,1516.9,295.2z"/>
	<path style="fill:#DAF0F9;" d="M947.6,30.4c16.1-1.2,31.4,14.2,31.3,31.6C978.8,79,962.6,93.8,947,93.3
		c-18.6-0.7-31.3-15-31.3-31.5C915.7,45.6,928,29.7,947.6,30.4z"/>
	<path style="fill:#D5F3D2;" d="M383,786.9c-17.3-0.1-31.6-13.9-31.4-31.1c0.2-17.5,13.9-30.8,31.2-30.8c17.6-0.1,31.4,13.7,31.4,31
		C414.1,772.8,400.5,786.9,383,786.9z"/>
	<path style="fill:#E4B2B2;" d="M1082.4,582.4c-17.2,0-30.9-13.9-30.7-30.1c0.3-16.9,13.3-29.8,30.5-29.6
		c20,0.2,30.9,13.6,31.1,29.7C1113.7,568,1102,582,1082.4,582.4z"/>
	<path style="fill:#D5F3D2;" d="M607.8,787.7c-16.2,0.8-31.1-13.4-31.2-30.7c0-16.8,14.5-30.7,30.8-30.8
		c17.6-0.1,31.3,14.6,31.4,30.7C638.9,773.5,625,788.3,607.8,787.7z"/>
	<path style="fill:#E4B2B2;" d="M756.1,786.6c-19.4-2.1-30.4-11.8-31-30.2c-0.4-14.7,10.1-29.5,30.8-29.6
		c18.4-0.1,30.7,13.5,30.6,29.5C786.5,774.7,773.5,784.7,756.1,786.6z"/>
	<path style="fill:#D5F3D2;" d="M376.7,1097.6c-1-16.8,15-31.3,31.2-30.7c18.8,0.6,31.1,13.7,31.1,30.8c0,16.5-11.6,30.3-31.3,30.6
		C390.3,1128.7,376,1113.5,376.7,1097.6z"/>
	<path style="fill:#E4B2B2;" d="M308.3,784.2c-19.9-0.3-31.2-14.6-30.9-30.1c0.3-16.3,11.6-29.5,30.9-29.6
		c17.5-0.1,30.6,13.2,30.7,29.7C339.1,770.7,326.4,784,308.3,784.2z"/>
	<path style="fill:#D5F3D2;" d="M1004.9,583.5c-18,0.9-31.1-14.7-30.8-31.3c0.4-16.7,14.4-30.3,31.8-30c17.1,0.3,31,14.1,30.8,31.4
		C1036.6,569.5,1023.3,584.7,1004.9,583.5z"/>
	<path style="fill:#D5F3D2;" d="M52.3,583.5c-17.3,1.3-31.1-14.1-31.2-30.2c-0.1-17.2,14.4-31.2,31.2-31.1c16.6,0.1,31,14,31,31.1
		C83.3,569.8,69,584.7,52.3,583.5z"/>
	<path style="fill:#E4B2B2;" d="M682.2,724.3c16.9,0.4,30.5,13.8,30.5,29.9c0,16.2-13.3,30.2-30.7,29.9c-19.7-0.3-31.2-14.3-31-29.9
		C651.2,738.4,662.5,725,682.2,724.3z"/>
	<path style="fill:#E4B2B2;" d="M932.6,582.4c-17.3-0.2-30.8-13.5-30.6-30c0.2-17.2,13-29.7,30.7-29.7c17.3,0,30.4,12.5,30.6,29.9
		C963.6,569.4,949.3,582.4,932.6,582.4z"/>
	<path style="fill:#D5F3D2;" d="M1156.8,583.5c-17.3,1.1-30.9-14.8-30.7-31c0.2-16.5,14.8-30.9,31.8-30.3
		c18.1,0.6,31.1,14.3,30.8,31.3C1188.3,569.7,1176.6,584.2,1156.8,583.5z"/>
	<path style="fill:#D5F3D2;" d="M124,582.8c-16.9,1.1-31.5-14.6-31.2-31.1c0.3-16.3,14.3-30.6,31.7-30.3
		c18.2,0.3,31.1,14.8,30.9,30.9C155.3,568.6,142.4,583.4,124,582.8z"/>
	<path style="fill:#E4B2B2;" d="M1463,581.6c-16.2-0.5-30.8-13.6-30.6-30.1c0.2-16.5,13.4-30,30.8-29.8
		c19.7,0.3,30.8,13.8,30.9,29.7C1494.3,567.2,1482.6,580.9,1463,581.6z"/>
	<path style="fill:#D5F3D2;" d="M1613.8,582c-16.6,0.6-31.6-14.6-31.2-31.2c0.4-17.6,14.4-30.7,31.5-30.7
		c17.3,0,31.1,13.6,31.2,31.3C1645.3,567.4,1631,582.9,1613.8,582z"/>
	<path style="fill:#E4B2B2;" d="M1388.3,522.5c17.4,0.6,30.5,12.7,30.6,30c0.2,16.9-13.7,29.9-30.6,30c-17.1,0-30.9-13.5-30.7-29.9
		C1357.7,535.4,1370.7,523.3,1388.3,522.5z"/>
	<path style="fill:#E4B2B2;" d="M456,724.3c19.3,0.8,30.6,13.9,30.9,29.8c0.2,15.7-11.3,30-31.3,30c-17,0-30.4-13.6-30.4-29.8
		C425.2,738.1,439,724.6,456,724.3z"/>
	<path style="fill:#D5F3D2;" d="M829.7,788.5c-17.3,1.2-31.5-14.4-31.5-30.7c0-16.1,14.4-31,31.3-30.7c18.8,0.3,31.2,14.3,31.2,30.8
		C860.7,774.4,849,788.7,829.7,788.5z"/>
	<path style="fill:#E4B2B2;" d="M1232.3,583.2c-18.3-0.1-30.9-13.7-30.6-30c0.4-18.8,13.5-29.7,30.6-29.5
		c19.1,0.2,30.3,11,30.9,29.5C1263.7,568.6,1252.8,583,1232.3,583.2z"/>
	<path style="fill:#D5F3D2;" d="M1538.8,582.8c-17,1-31.5-14.6-31.1-31.2c0.4-16.6,13.6-30.1,31.4-30.2c17.6,0,31.4,14.3,31.3,31
		C1570.2,568.4,1556.4,583.8,1538.8,582.8z"/>
	<path style="fill:#D5F3D2;" d="M196.1,583.5c-18.2,1-31.2-14.2-31.3-30.4c-0.2-17.1,14.2-31,31.1-30.9
		c17.7,0.1,31.4,13.7,31.5,30.9C227.4,569.1,214.1,584.7,196.1,583.5z"/>
	<path style="fill:#FEFEFE;" d="M858.5,892.7c-0.1-0.2-0.4-0.4-0.4-0.5c0-0.4,0.4-0.6,0.8-0.4c0.2,0.1,0.3,0.5,0.2,0.6
		C859,892.6,858.7,892.6,858.5,892.7z"/>
</g>
</svg>
